<?xml version="1.0" encoding="UTF-8"?>
<svg id="_레이어_2" data-name="레이어_2" xmlns="http://www.w3.org/2000/svg" viewBox="0 0 411.99 562.72">
  <g id="_레이어_1-2" data-name="레이어_1">
    <g>
      <g>
        <path d="M411.95,294.65c-2.89,67.9-23.62,115.69-53.9,159.98-27.62,40.41-61.68,74.66-99.94,104.97-5.85,4.63-9.04,4.17-13.15-1.9-11.12-16.42-10.36-12.57,3.09-23.67,43.7-36.06,81.56-77.08,108.57-127.39.5-.93,1.17-1.79,1.55-2.76.83-2.12,3.17-4.57,1.43-6.48-2.17-2.37-4.26.75-6.14,1.7-44.66,22.44-96.46,13.02-130.11-23.88-11.75-12.89-19.74-27.9-24.28-44.75-.53-1.97,0-4.84-2.35-5.48-2.81-.76-3.81,2.17-5.3,3.93-36.7,43.13-97.78,51.93-144.19,20.78-62.51-41.95-63.05-135.65-1.02-178.38,1.52-1.05,3-2.18,4.63-3.04,5.72-3.01,4.77-5.59.05-8.94-13.15-9.35-23.29-21.32-29.51-36.33C2.04,76.38,23.48,25.68,71.59,6.94c42.32-16.48,93.13-3.71,118.74,39.18,22.19,37.16,11.78,85.82-24.63,112.77-6.11,4.52-4.93,6.57.43,10.03,23.12,14.9,38.34,35.73,45.95,62.19.7,2.43.66,6.11,3.41,6.71,2.76.6,4.12-2.79,5.74-4.74,37.67-45.4,106.06-50.96,150.47-14.05,27.63,22.96,41.13,52.8,40.23,75.64ZM189.88,260.98c.36-44.35-35.36-81.22-77.79-82.93-46.47-1.88-85.68,34.77-86.52,81.83-.78,43.73,37.19,82.03,81.4,82.46,45.13.43,82.54-36.28,82.91-81.36ZM385.48,302.59c-.1-45.12-36.57-81.34-81.36-81.67-43.73-.32-82.15,34.54-82.71,82.37-.51,43.75,37.48,81.74,80.21,81.7,47.53-.04,83.97-35.85,83.87-82.4ZM40.37,88.35c.35,4.96-.07,9.91,1.41,14.87,12.47,41.83,61.34,61.61,99.69,40.22,25.77-14.37,39.13-41.21,33.08-66.48-8.51-35.55-45.75-57.64-81.73-49.5-30.35,6.86-53.73,33.96-52.45,60.89Z"/>
        <path d="M131.52,259.92c.05,14.07-9.87,24.04-23.85,23.96-13.07-.08-23.55-10.59-23.65-23.71-.1-12.94,10.61-23.98,23.38-24.12,13.64-.15,24.07,10.18,24.12,23.87Z"/>
      </g>
      <polygon points="317.45 326.81 309.49 322.37 304.35 329.9 299.36 322.27 291.3 326.55 290.43 317.47 281.32 317.52 284.76 309.08 276.67 304.88 283.64 299.01 278.42 291.53 287.32 289.57 286.18 280.53 294.98 282.93 298.17 274.39 304.84 280.6 311.63 274.52 314.65 283.12 323.49 280.9 322.17 289.92 331.03 292.06 325.67 299.43 332.52 305.44 324.34 309.47 327.62 317.98 318.51 317.75 317.45 326.81"/>
    </g>
  </g>
</svg>