<svg xmlns="http://www.w3.org/2000/svg" xmlns:xlink="http://www.w3.org/1999/xlink" width="317.362" height="433.473" viewBox="0 0 317.362 433.473">
  <defs>
    <clipPath id="clip-path">
      <rect id="사각형_5" data-name="사각형 5" width="317.362" height="433.473"/>
    </clipPath>
  </defs>
  <g id="main-about" transform="translate(-229 -1189)">
    <g id="그룹_10" data-name="그룹 10" transform="translate(229 1189)">
      <g id="그룹_4" data-name="그룹 4" clip-path="url(#clip-path)">
        <path id="패스_2" data-name="패스 2" d="M317.33,226.977c-2.224,52.3-18.193,89.118-41.519,123.238-21.278,31.126-47.512,57.512-76.982,80.859-4.5,3.57-6.961,3.211-10.128-1.464-8.566-12.648-7.977-9.684,2.383-18.234,33.66-27.777,62.83-59.377,83.631-98.128a20.349,20.349,0,0,0,1.19-2.125c.637-1.635,2.445-3.523,1.1-4.989-1.668-1.823-3.278.582-4.734,1.313-34.405,17.284-74.3,10.033-100.228-18.4a82.156,82.156,0,0,1-18.706-34.472c-.409-1.518-.006-3.731-1.813-4.224-2.162-.588-2.932,1.675-4.086,3.031-28.271,33.224-75.323,40-111.072,16.009-48.156-32.317-48.569-104.5-.783-137.411a35.851,35.851,0,0,1,3.563-2.339c4.406-2.316,3.672-4.3.036-6.89A64.127,64.127,0,0,1,16.454,94.768C1.568,58.833,18.09,19.778,55.143,5.349c32.6-12.695,71.738-2.857,91.471,30.183,17.095,28.623,9.074,66.111-18.971,86.867-4.708,3.484-3.8,5.06.335,7.723,17.811,11.479,29.532,27.523,35.4,47.9.538,1.87.509,4.707,2.628,5.166s3.176-2.151,4.423-3.655c29.014-34.972,81.7-39.257,115.913-10.826,21.28,17.684,31.682,40.674,30.99,58.266M146.266,201.036c.281-34.16-27.238-62.563-59.927-63.885a64.087,64.087,0,0,0-66.646,63.037c-.6,33.688,28.65,63.192,62.7,63.519a63.5,63.5,0,0,0,63.869-62.67M296.943,233.09a63.071,63.071,0,0,0-62.677-62.912c-33.687-.246-63.281,26.608-63.711,63.453-.394,33.7,28.875,62.964,61.785,62.936,36.61-.032,64.684-27.617,64.6-63.478M31.1,68.057c.266,3.824-.055,7.632,1.085,11.455,9.609,32.222,47.25,47.457,76.792,30.979,19.851-11.073,30.139-31.749,25.482-51.209C127.9,31.9,99.217,14.883,71.5,21.149,48.119,26.435,30.112,47.31,31.1,68.057" transform="translate(0 0)"/>
        <path id="패스_3" data-name="패스 3" d="M120.607,254.442c.04,10.84-7.606,18.522-18.369,18.456A18.315,18.315,0,0,1,84.02,254.633a18.582,18.582,0,0,1,18.007-18.577,18.047,18.047,0,0,1,18.58,18.386" transform="translate(-19.298 -54.218)"/>
        <path id="패스_4" data-name="패스 4" d="M308.083,314.768l-6.134-3.416-3.961,5.8-3.844-5.875-6.2,3.292-.674-6.988-7.021.034,2.651-6.5-6.232-3.233,5.369-4.524L278.02,287.6l6.857-1.511-.88-6.966,6.773,1.849,2.458-6.577,5.138,4.784,5.233-4.681,2.326,6.625,6.809-1.713-1.018,6.947L318.542,288l-4.13,5.678,5.278,4.631-6.3,3.107,2.521,6.553-7.019-.174Z" transform="translate(-63.546 -63.023)"/>
      </g>
    </g>
    <path id="패스_50" data-name="패스 50" d="M-89.415-5.641c0,4.008,2.857,6.012,6.717,6.012,3.006,0,4.9-1.3,5.9-3.154h.148V0h5.2V-13.582c0-4.861-4.156-6.828-8.535-6.828-5.344,0-8.387,2.746-8.721,6.234h5.232c.3-1.373,1.484-2.227,3.34-2.227,2.041,0,3.191,1,3.229,2.672V-12.1c-.854.037-3.562.167-5.01.26C-85.778-11.615-89.415-10.131-89.415-5.641Zm5.27-.148c0-1.559,1.225-2.449,3.117-2.635.946-.093,3.284-.223,4.119-.26V-7.2c.037,2.115-1.744,3.785-4.23,3.785C-82.884-3.414-84.146-4.23-84.146-5.789ZM-67.261,0h5.492V-11.467a4.1,4.1,0,0,1,4.3-4.193,10.261,10.261,0,0,1,2.338.3v-4.9a8.666,8.666,0,0,0-1.744-.186,4.906,4.906,0,0,0-4.861,3.785h-.223V-20.15h-5.307Zm26.422-20.15h-3.785v-4.824h-5.492v4.824H-52.9v4.119h2.783V-5.418C-50.153-1.521-47.444.26-43.474.26A17.278,17.278,0,0,0-40.542.074V-4.268c-.668.074-1.633.111-2.189.111-1.113-.037-1.893-.445-1.893-2.041v-9.834h3.785ZM-37.388,0H-31.9V-20.15h-5.492Zm2.746-22.785a2.9,2.9,0,0,0,2.969-2.783,2.9,2.9,0,0,0-2.969-2.82,2.911,2.911,0,0,0-3.006,2.82A2.9,2.9,0,0,0-34.642-22.785Zm18.518,8.609h5.158c-.3-3.822-3.451-6.234-8.535-6.234-5.2,0-8.535,2.412-8.5,6.271-.037,2.969,1.967,4.973,5.789,5.715l3.34.668c1.893.408,2.746,1.039,2.746,2.078,0,1.3-1.336,2.115-3.34,2.115s-3.3-.816-3.562-2.412h-5.529C-28.11-2.041-24.919.408-19.464.408c5.344,0,8.906-2.672,8.943-6.643-.037-2.895-1.93-4.639-5.826-5.455l-3.6-.742c-1.893-.408-2.635-1.113-2.6-2-.037-1.225,1.336-2.078,3.117-2.078C-17.608-16.514-16.347-15.586-16.124-14.176ZM3.47-20.15H-.315v-4.824H-5.808v4.824H-8.591v4.119h2.783V-5.418C-5.845-1.521-3.136.26.835.26A17.278,17.278,0,0,0,3.767.074V-4.268c-.668.074-1.633.111-2.189.111C.464-4.193-.315-4.6-.315-6.2v-9.834H3.47ZM24.733.408c5.344,0,8.684-3.154,8.943-7.719H28.519a3.612,3.612,0,0,1-3.711,3.34c-2.672,0-4.379-2.227-4.379-6.123,0-3.822,1.744-6.049,4.379-6.049a3.657,3.657,0,0,1,3.711,3.377h5.158c-.223-4.6-3.748-7.645-8.943-7.645-6.123,0-9.871,4.23-9.871,10.391S18.573.408,24.733.408Zm17.85-27.275H37.091V0h5.492ZM59.765-8.572a3.883,3.883,0,0,1-3.9,4.193c-2.152,0-3.525-1.521-3.525-3.9V-20.15H46.851v12.84C46.851-2.6,49.6.26,53.642.26a6.218,6.218,0,0,0,6.123-3.9h.223V0h5.27V-20.15H59.765ZM69.636,0h5.418V-3.229h.223A5.977,5.977,0,0,0,81.028.334c4.6,0,8.2-3.674,8.2-10.391,0-6.9-3.748-10.353-8.2-10.353a6,6,0,0,0-5.752,3.637h-.148V-26.867H69.636Zm5.381-10.094c0-3.637,1.521-5.937,4.268-5.937,2.82,0,4.3,2.412,4.3,5.937,0,3.562-1.484,6.049-4.3,6.049C76.575-4.045,75.017-6.457,75.017-10.094Z" transform="translate(336.832 1546.455)" fill="red"/>
  </g>
</svg>
