<?xml version="1.0" encoding="UTF-8"?>
<svg id="_레이어_2" data-name="레이어_2" xmlns="http://www.w3.org/2000/svg" viewBox="0 0 1475.31 294.45">
  <g id="_레이어_1-2" data-name="레이어_1">
    <g>
      <path d="M776.92,80.82c23.44,0,46.88,0,70.32,0,.56,0,1.12,0,1.68,0,2.04-.03,2.06-.03,2.07-2.17,0-11.36,0-22.72,0-34.08,0-.56.01-1.12,0-1.68-.02-.84.35-1.23,1.04-1.83,1.61-1.41,3.44-1.64,5.35-1.92.46-.07,1.14.02,1.26-.49.38-1.57,1.67-1.24,2.69-1.38.8-.11,1.44-.14,2.01-.94.62-.86,1.82-.78,2.85-.96.99-.17,2.32.2,2.65-1.43.13-.67.94-.43,1.47-.48,1.31-.14,2.62-.04,3.58-1.38.64-.9,1.94-.51,2.95-.65.85-.12,1.75.03,2.03-1.19.19-.82,1.06-.51,1.64-.65,1.47-.36,3.29.13,4.17-1.73.08-.18.58-.17.9-.22,1.33-.22,2.89.25,3.61-1.59.15-.38,1.3-.39,2-.52,1.27-.23,2.76.08,3.47-1.51.08-.19.57-.23.88-.27,1.38-.19,2.81-.09,3.7-1.62.28-.48,1.27-.53,2-.6,1.29-.12,2.6.08,3.49-1.43.4-.68,1.77-.47,2.73-.57,1.09-.11,2.22-.08,2.75-1.43.33-.84,1.28-.4,1.94-.54.94-.2,2.11.23,2.45-1.3.16-.71,1.11-.51,1.7-.54,4.32-.22,3.8-.93,3.8,3.31.02,19.12,0,38.24,0,57.36,0,.48,0,.96,0,1.44.03,3.27-.34,3.01,2.91,3.02,7.52,0,15.04,0,22.56,0q4.1,0,4.1,4.08c0,2.8.03,5.6,0,8.4-.03,2.64-.59,3.17-3.3,3.24-2.72.07-5.44.07-8.16.19-.89.04-1.89-.07-2.33,1.2-.32.9-1.42.48-2.16.67-.75.19-1.66,0-1.68,1.21,0,.2-.26.59-.31.58-1.84-.47-1.8,2.07-3.33,2.05-.28,1.58-2.36,1.69-2.67,3.26-1.75.45-1.36,2.79-3.07,3.42-.63.23-.61,1.4-.66,2.2-.08,1.19-.03,2.42-1.36,3.08-.49.25-.42.82-.43,1.3-.04,1.52-.1,3.04-.11,4.56,0,47.36,0,94.72,0,142.08,0,1.2,0,2.4.07,3.6.04.63.03,1.6.4,1.81,1.48.86,1.34,2.36,1.76,3.65.05.15.09.42.17.43,1.88.23,2.76,2.26,4.56,2.57,1.72.29,3.51.19,4.91,1.57.54.53,1.38.27,2.09.27,4.32.02,8.64,0,12.96,0,.56,0,1.12-.01,1.68,0q2.89.09,2.9,2.97c0,2.48-.04,4.96.02,7.44.02,1.11-.34,1.64-1.49,1.61-.88-.02-1.76.07-2.64.07-18.88,0-37.76.01-56.64,0-2.64,0-5.28-.1-7.91-.2-.62-.02-1.54.17-1.8-.39-.81-1.76-2.37-1.23-3.71-1.45-1.17-.19-2.56.33-3.22-1.38-.27-.7-1.43-.5-2.21-.57-.76-.06-1.38-.11-1.63-1.04-.26-.97-1.31-.76-2.01-1.02-.73-.27-1.52-.18-1.69-1.31-.14-.96-2.05-.22-1.92-1.69-1.45-.52-1.69-2.38-3.16-2.86-.44-.14-.69-.36-.72-.81-.04-.62-.25-1.11-.94-1.17-.76-.06-.86-.56-.88-1.17,0-.23-.04-.62-.16-.67-1.79-.74-1.38-2.77-2.24-3.84-1.32-1.64-1.66-3.35-1.9-5.24-.03-.23-.07-.58-.21-.66-1.99-1.06-1.47-3-1.64-4.66-.16-1.54,0-3.04-1.12-4.46-.8-1.01-.62-2.6-.66-3.96-.07-2.56-.12-5.12-.12-7.68,0-38.4,0-76.8,0-115.2,0-1.52-.05-3.04-.13-4.56-.04-.85.06-1.76-1.08-2.15-.74-.25-.57-1.07-.65-1.68-.14-1.03.12-2.37-.44-3.02-1.11-1.3-1.71-2.67-1.93-4.29-1.68-.24-1.27-2.58-2.9-2.89-.48-.09-.56-.5-.59-.91-.04-.4-.11-.78-.5-1.02-1.44-.92-2.76-1.97-3.51-3.57-1.72.05-1.77-2.52-3.6-2.3-.13.02-.39-.11-.41-.19-.29-1.87-1.79-1.65-3.07-1.8-.32-.04-.75-.03-.84-.34-.53-1.8-2.07-1.35-3.32-1.55-.99-.16-2.1-.02-2.71-1.16-.43-.8-1.28-.55-1.95-.57-4.32-.12-8.64-.34-12.95-.23-5.29.14-10.53-.59-15.81-.5-.72.01-1.44.04-2.15.16-.66.12-.84.66-.81,1.28.03.51.16,1.03.77,1.01,1-.03,1.27.53,1.62,1.35.35.81,1.42.48,2.16.7.63.18,1.29.16,1.32,1.05.02.75.53.9,1.14.9.53,0,.97.15.98.78.02.83.48,1.11,1.23,1.1.08,0,.22,0,.23.03.33,1.51,1.94,1.71,2.79,2.71.95,1.11,1.91,2.23,3.11,3.09l2.65,3.41c.06.46.33.73.78.75.81.04,1.1.48,1.12,1.24,0,.31.14.7.49.74,1.5.16,1.25,1.46,1.51,2.37.2.7.12,1.45,1.15,1.49.33.01.65.25.61.61-.14,1.26,1.32,1.74,1.44,2.46.42,2.44,2.82,4,2.64,6.65-.06.86-.14,2,1.18,2.31.59.14.55.71.61,1.17.11.95.21,1.91.31,2.86.05.48-.06,1.12.2,1.4,2,2.11,1.41,4.79,1.73,7.27.17,1.31-.04,2.7,1.13,3.77.39.36.44,1.18.5,1.81.13,1.35.22,2.71.22,4.07.01,40.24,0,80.48,0,120.72q0,3.5,3.6,3.5c4.4,0,8.8-.01,13.2,0,2.66.01,4.36,1.74,4.39,4.44.02,1.6.04,3.2-.02,4.8-.06,1.51-.5,1.96-2,2.14-.63.08-1.28.04-1.92.04-27.84,0-55.68,0-83.52,0-.08,0-.16,0-.24,0-2.73-.02-2.6.25-2.61-2.59-.01-1.92-.02-3.84-.04-5.76,0-.47,0-1.03-.55-1.22-.55-.19-1.17-.17-1.43.48-.34.85-1.15.75-1.78,1.02-.88.37-2.02.09-2.46,1.49-.2.64-1.44.42-2.2.64-.45.13-1.19-.02-1.26.47-.23,1.66-1.53,1.39-2.56,1.49-.84.09-1.4.23-1.9,1.07-.52.87-1.68.7-2.63.82-1.27.16-2.8-.27-3.36,1.54-.12.38-.69.31-1.08.34-1.04.07-2.08.1-3.11.2-1.29.12-2.76-.27-3.52,1.37-.25.54-1.02.34-1.56.36-2.16.09-4.32.14-6.47.2-.79.02-1.58-.08-2.04.86-.43.89-1.34.7-2.13.74-8.31.46-16.62.43-24.94.41-3.6,0-7.19-.15-10.79-.24-1.14-.03-2.26-.08-2.95-1.21-.35-.58-.94-.51-1.5-.53-1.28-.05-2.56-.06-3.83-.16-1.2-.1-2.46.19-3.27-1.33-.42-.8-1.77-.39-2.69-.54-1.15-.19-2.63.37-3.11-1.45-.15-.56-1-.32-1.52-.44-1.47-.35-3.27.13-4.15-1.73-.1-.21-.74-.17-1.12-.26-1.04-.24-2.33-.03-2.63-1.56-.03-.16-.35-.38-.54-.39-1.54-.06-2.65-.85-3.7-1.9-.34-.34-1.45-.2-1.51-.45-.39-1.55-1.85-1.5-2.85-2.1-.99-.58-1.4-2.03-2.86-1.88.07-1.78-2.55-1.36-2.56-3.13,0-.47-.54-.51-.94-.53-.55-.02-.94-.22-.93-.83,0-.83-.47-1.1-1.21-1.12-.47-.01-.74-.3-.75-.75-.01-.87-.41-1.32-1.3-1.38-.17-.01-.45-.28-.48-.46-.17-1.07-.72-1.51-1.81-1.34-1.1.16-1.96.52-2.3,1.72-.28.99-.28,2.29-1.85,2.26.12,1.8-2.56,1.4-2.51,3.18,0,.14-.34.44-.5.42-2.09-.23-2.73,2.14-4.5,2.48-.37.07-.4.47-.42.78-.05.67-.39,1.02-1.05,1.06-.61.04-1.08.21-1.24.89-.05.22-.19.56-.33.59-1.73.33-3.04,1.42-4.45,2.35-.3.2-.95.09-1.02.48-.29,1.55-1.57,1.4-2.61,1.57-.73.13-1.21.24-1.65,1.03-.54.97-1.81.78-2.83.92-1.06.14-2.29-.04-2.72,1.42-.17.56-.77.46-1.24.49-.8.05-1.6.07-2.39.14-.48.04-1.19-.01-1.38.27-1.52,2.2-3.83,1.41-5.85,1.61-1.47.15-3-.17-4.06,1.37-.38.56-1.33.42-2.05.45-10.79.37-21.59.29-32.39.09-1.52-.03-3.04-.08-4.56-.13-1.28-.04-2.55,0-3.48-1.19-.55-.7-1.5-.47-2.27-.5-2.64-.13-5.28-.17-7.91-.27-.54-.02-1.27.19-1.55-.38-.73-1.51-2.08-1.24-3.32-1.31-1.44-.08-2.88-.08-4.31-.17-.93-.06-1.97.04-2.33-1.22-.16-.56-.74-.51-1.21-.55-1.04-.09-2.07-.16-3.11-.26-.46-.05-1.13.06-1.3-.42-.56-1.54-1.89-1.17-3-1.35-1.29-.21-2.78.09-3.41-1.6-.14-.37-.71-.26-1.08-.36-1.15-.29-2.6.1-3.21-1.52-.12-.31-1-.34-1.54-.48-.88-.21-1.89,0-2.23-1.34-.18-.72-1.27-.43-1.93-.67-.73-.26-1.64-.12-1.76-1.24-.02-.2-.25-.54-.39-.55-1.63-.1-2.61-1.21-3.83-2.07-.72-.51-1.77-.41-1.84-1.69-.02-.44-.63-.36-1.02-.4-.42-.05-.84-.18-.85-.66-.03-.98-.66-1.08-1.44-1.21-.79-.13-1.53-.46-1.87-1.32-.15-.38-.42-.66-.8-.85-1.58-.78-2.37-2.42-3.63-3.46-1.96-1.62-2.84-3.89-4.36-5.74-1.82-.09-1.27-2.8-3.15-2.87-.12,0-.28-.36-.32-.58-.22-1.31-.2-2.76-1.95-3.12,0-1.93-2.76-2.56-2.26-4.76.06-.25-.13-.79-.3-.83-1.72-.44-1.4-1.89-1.59-3.08-.06-.39-.03-.98-.43-1.03-1.66-.2-1.35-1.51-1.5-2.53-.11-.79,0-1.57-1.12-1.8-.85-.17-.52-1.05-.66-1.63-.37-1.54.14-3.29-1.68-4.45-.58-.37-.38-1.94-.56-2.95-.19-1.05.05-2.23-1.21-2.92-.57-.31-.41-1.17-.49-1.79-.16-1.35-.21-2.71-.34-4.06-.07-.77-.12-1.46-.84-2.11-.83-.75-.89-2-.93-3.13-.08-2.08-.15-4.16-.22-6.23-.03-.88-.04-1.76-.11-2.64-.05-.58.18-1.46-.81-1.41-.9.04-.77.87-.83,1.48-.1,1.11-.16,2.23-.23,3.35-.07,1.12-.11,2.23-1.19,2.98-.6.41-.47,1.15-.5,1.78-.1,2.24-.21,4.47-.26,6.71-.02.9-.01,1.91-.64,2.49-1.15,1.07-1.12,2.37-1.16,3.71-.03.8-.08,1.6-.11,2.4-.03.65-.06,1.49-.52,1.8-1.63,1.1-1.26,2.73-1.46,4.27-.12.94.07,2.12-1.29,2.56-.8.26-.39,1.1-.5,1.69-.2,1.03.17,2.25-1.37,2.71-.75.23-.57,1.26-.68,1.93-.22,1.27-.31,2.53-1.51,3.37-.5.35-.38,1.01-.56,1.52-.31.93-.18,2.15-1.46,2.54-.07.02-.2.08-.2.12-.02,1.62-1.66,2.3-2.11,3.68-.32.97-.18,2.29-1.7,2.43-.09,1.95-2.55,2.57-2.56,4.57,0,.44-.22.8-.66.88-.87.16-1.19.68-1.2,1.51,0,.46-.35.72-.79.73-.78,0-1.16.34-1.17,1.15,0,.58-.4.83-.94.88-.58.05-.86.35-.87.92,0,.65-.25,1.1-.97,1.06-.78-.04-1.19.31-1.25,1.09-.04.61-.47.76-.99.79-.43.02-.85.17-.88.63-.08,1-1.02.99-1.5,1.45-1.18,1.13-2.38,1.98-4,2.2-.18,1.78-2.09,1.58-2.96,2.58-.54.63-1.28.99-2.06,1.11-.76.12-1.37.27-1.67,1.08-.2.52-.79.46-1.23.62-1.12.4-2.56.1-3.12,1.74-.16.47-1.28.46-2.01.54-1.27.14-2.62-.15-3.5,1.4-.43.76-1.78.39-2.71.55-1.17.2-2.61-.27-3.17,1.45-.18.56-1,.37-1.54.4-2,.11-4,.14-5.99.25-.86.04-1.75,0-2.27.99-.45.88-1.41.65-2.16.68-3.04.11-6.08.14-9.12.22-1.09.03-2.24-.14-2.95,1.1-.35.61-1.14.42-1.77.48-3.83.36-7.67.23-11.51.28-8.72.12-17.44.13-26.15-.15-1.34-.04-2.71.1-3.67-1.25-.44-.62-1.35-.4-2.05-.43-2.48-.12-4.96-.15-7.43-.25-.85-.04-1.78.05-2.21-1.04-.3-.76-1.06-.59-1.67-.63-1.52-.1-3.03-.15-4.55-.25-.53-.04-1.26.11-1.41-.61-.29-1.38-1.4-1.06-2.27-1.21-1.43-.24-3.08.2-3.94-1.6-.24-.51-1.04-.23-1.57-.34-1.01-.2-2.25.2-2.65-1.42-.16-.67-1.28-.43-1.95-.64-.73-.23-1.63-.02-1.87-1.11-.13-.58-.75-.46-1.18-.62-1.02-.39-2.49-.01-2.81-1.68-.07-.36-.72-.22-1.07-.35-.92-.36-2.08-.36-2.42-1.63-.11-.4-.54-.59-.97-.58-.86.02-1.33-.32-1.41-1.23-.04-.45-.49-.55-.91-.62-.3-.06-.83-.2-.83-.32-.09-1.67-1.44-1.63-2.52-1.89-.62-.15-.98-.51-1.16-1.07-.25-.77-.86-.82-1.52-.87-2.39-.18-2.53-.07-2.72,2.34-.11,1.41,0,2.84-1.55,3.75-.57.33-.25,1.35-.33,2.06-.16,1.4,0,2.87-1.57,3.75-.67.38-.35,1.33-.5,2.02-.3,1.48.13,3.19-1.58,4.23-.36.22-.31,1.18-.36,1.81-.15,1.87-.02,1.83-2.18,1.96-.72.04-1.44.04-2.16.04-10.08,0-20.16.01-30.24-.01-1.39,0-3.2.62-3.43-1.74-1.98-.62-1.43-2.33-1.64-3.73-.14-.97.11-2.12-1.27-2.55-.67-.2-.44-.95-.52-1.47-.25-1.6.09-3.35-1.66-4.5-.62-.41-.27-1.51-.38-2.3-.11-.8-.03-1.6-1.08-1.87-.69-.18-.63-.85-.69-1.4-.11-.95-.18-1.91-.27-2.86-.04-.47.1-1.12-.43-1.28-1.61-.48-1.24-1.83-1.39-2.94-.18-1.29.18-2.72-1.47-3.49-.6-.28-.43-1.31-.6-2-.34-1.39.08-2.96-1.5-4.01-.51-.34-.35-1.64-.53-2.49-.24-1.11-.03-2.37-1.49-2.97-.75-.31-.39-1.3-.5-1.98-.16-.99.04-1.99-1.04-2.76-.85-.61-.85-1.81-.89-2.87-.04-1.07.07-2.12-1.23-2.83-.77-.42-.67-1.7-.78-2.66-.12-1.11.13-2.34-1.3-3.06-.76-.38-.47-1.6-.58-2.46-.15-1.22.07-2.49-1.48-3.22-.77-.37-.44-1.61-.54-2.46-.16-1.25.04-2.59-1.44-3.28-.5-.23-.34-.83-.41-1.3-.26-1.73.24-3.73-1.78-4.84-.19-.1-.2-.58-.24-.89-.21-1.38-.07-2.85-1.52-3.8-.34-.22-.32-1.03-.41-1.59-.23-1.43.08-2.93-1.48-4.02-.63-.43-.4-1.79-.55-2.73-.18-1.1-.03-2.29-1.38-3.06-.75-.42-.63-1.71-.73-2.67-.12-1.13.04-2.29-1.32-3.07-.77-.44-.5-1.76-.61-2.7-.12-1.08.03-2.25-1.31-2.82-.85-.36-.47-1.26-.6-1.93-.18-.95.08-1.94-1.12-2.64-.85-.5-.73-1.84-.82-2.89-.11-1.2.22-2.56-1.4-3.23-.62-.26-.48-1.28-.58-1.99-.19-1.35.25-2.89-1.49-3.72-.38-.18-.34-1.32-.44-2.03-.19-1.37.07-2.78-1.55-3.71-.67-.38-.42-1.78-.59-2.71-.21-1.11.02-2.33-1.34-3.08-.77-.42-.44-1.62-.57-2.47-.18-1.24-.02-2.58-1.51-3.25-.72-.32-.4-1.13-.51-1.73-.19-1.02.05-2.04-1.16-2.88-.89-.61-.68-2.19-.83-3.38-.1-.77.28-1.9-1.15-1.94-1.39-.04-2.2.44-2.51,1.7-.17.69-.14,1.43-.27,2.13-.17.86.2,2.02-1.25,2.24-.58.09-.43.76-.51,1.21-.32,1.72.08,3.62-1.74,4.94-.52.38-.24,1.82-.39,2.76-.17,1.06.04,2.29-1.34,2.82-.66.25-.4.96-.48,1.49-.26,1.65.21,3.57-1.79,4.58-.22.11-.17.73-.25,1.12-.23,1.21-.12,2.45-1.37,3.38-.7.52-.49,1.78-.65,2.72-.18,1.02.09,2.22-1.32,2.82-.73.31-.6,1.41-.72,2.19-.22,1.38.36,3.01-1.54,3.84-.4.18-.32,1.48-.43,2.26-.17,1.27.18,2.65-1.48,3.42-.73.34-.42,1.62-.52,2.47-.14,1.21-.2,2.4-1.35,3.17-.66.43-.42,1.15-.51,1.75-.17,1.03.17,2.17-1.35,2.71-.79.28-.51,1.57-.64,2.42-.21,1.34.27,2.84-1.41,3.77-.67.37-.46,1.61-.56,2.48-.13,1.14.09,2.35-1.34,3.07-.79.39-.52,1.59-.72,2.42-.31,1.24,0,2.6-1.41,3.56-.55.37-.39,1.78-.56,2.71-.2,1.12.04,2.42-1.52,2.89-.61.18-.4.97-.46,1.5-.12,1.03.16,2.43-.4,3.03-1.36,1.44-1.71,3.04-1.72,4.86-2,1.39-1.68,3.56-1.92,5.56-.03.22-.11.58-.25.62-1.93.58-1.42,2.23-1.61,3.58-.14,1.06.09,2.28-1.35,2.77-.52.17-.4.81-.45,1.28-.1.95-.18,1.91-.29,2.86-.05.46.05,1.18-.42,1.29-1.57.36-1.26,1.64-1.42,2.65-.2,1.32-.09,2.65-1.5,3.54-.68.43-.33,1.49-.41,2.27-.1.88-.01,1.71-1.11,2.13-.88.34-.72,1.35-.86,2.1-.27,1.4.17,2.96-1.49,3.97-.49.3-.31,1.64-.52,2.49-.28,1.16.07,2.5-1.43,3.29-.69.36-.58,1.58-.66,2.45-.12,1.23,0,2.45-1.38,3.3-.78.49-.46,1.77-.57,2.71-.12,1.1-.06,2.23-1.37,2.81-.84.37-.5,1.27-.56,1.94-.36,4.02-.55,4.21-4.67,4.21-11.92,0-23.84,0-35.76,0-.56,0-1.12-.02-1.68,0-.82.02-1.34-.22-1.45-1.17-.13-1.14-.17-2.27-1.43-3.06-.66-.41-.29-1.65-.47-2.51-.24-1.19.07-2.6-1.47-3.25-.61-.26-.42-.97-.51-1.51-.26-1.65.24-3.49-1.64-4.7-.64-.41-.23-1.66-.38-2.52-.2-1.18.24-2.6-1.47-3.16-.71-.23-.34-1.14-.43-1.74-.24-1.53.08-3.19-1.6-4.27-.63-.41-.32-1.51-.39-2.29-.1-1.28-.06-2.57-1.4-3.35-.77-.45-.42-1.3-.54-1.97-.27-1.5.15-3.21-1.64-4.2-.53-.29-.2-1.2-.3-1.82-.23-1.45.07-3.02-1.54-4.03-.66-.42-.34-1.5-.41-2.28-.13-1.35-.08-2.71-1.5-3.55-.72-.43-.39-1.32-.53-2-.32-1.48.06-3.15-1.57-4.24-.59-.4-.33-1.51-.43-2.29-.17-1.32-.05-2.68-1.58-3.45-.7-.35-.38-1.32-.46-2.01-.18-1.46.11-2.98-1.53-3.99-.72-.44-.29-1.65-.43-2.5-.21-1.26.18-2.7-1.53-3.4-.68-.28-.35-1.32-.43-2.01-.16-1.41.03-2.85-1.52-3.78-.72-.43-.32-1.5-.43-2.27-.13-.86.03-1.79-1.14-2.08-.56-.14-.56-.71-.61-1.19-.1-1.03-.2-2.07-.3-3.1-.04-.47.1-1.08-.39-1.31-1.48-.69-1.32-2.02-1.43-3.28-.11-1.21.17-2.55-1.4-3.26-.57-.26-.51-1.28-.62-1.99-.22-1.43.02-2.86-1.4-4.07-.7-.59-.52-2.25-.66-3.43-.1-.88-.12-1.65-1.03-2.25-.83-.55-.9-1.61-.96-2.59-.09-1.3.06-2.58-1.26-3.62-.81-.64-.63-2.07-.72-3.19-.07-.9.1-1.81-1.08-2.42-.82-.42-.79-1.65-.86-2.62-.09-1.31.1-2.67-1.27-3.63-.6-.42-.61-1.42-.65-2.24-.07-1.31.08-2.62-1.27-3.63-.79-.6-.58-1.92-.69-2.95-.11-1.02.26-2.21-1.32-2.7-.72-.22-.5-1.42-.61-2.19-.19-1.43.22-2.94-1.44-4.01-.78-.5-.44-1.94-.54-2.97-.1-.99.07-2.03-1.18-2.64-.85-.41-.65-1.54-.82-2.38-.27-1.32.15-2.76-1.38-3.79-.69-.47-.52-1.92-.61-2.96-.09-1.08-.09-2.12-1.24-2.91-.83-.57-.76-1.84-.84-2.89-.09-1.12.18-2.3-1.19-3.12-.72-.43-.64-1.71-.76-2.67-.14-1.07.27-2.39-1.4-2.92-.67-.22-.41-1.44-.54-2.22-.21-1.34.22-2.8-1.41-3.77-.73-.43-.39-1.78-.55-2.72-.2-1.16.27-2.56-1.44-3.21-.7-.26-.4-1.45-.53-2.22-.22-1.32.31-2.87-1.49-3.66-.55-.24-.4-1.35-.38-2.04.03-1.33-.63-1.6-1.78-1.59-3.68.03-7.36,0-11.04-.01-2,0-4,.03-6-.01-.94-.02-2.3.46-2.72-.34-.66-1.28-1.99-2.28-1.84-4,.14-1.59,0-3.2.04-4.8.05-2.08.64-2.64,2.76-2.75.4-.02.8,0,1.2,0,34.64,0,69.28,0,103.92,0q4.15,0,4.15,4.05c0,1.52.02,3.04,0,4.56-.05,2.66-.59,3.25-3.26,3.27-4.72.04-9.44.01-14.16.01-.88,0-1.76-.02-2.64.01-1.56.06-1.66.16-1.6,1.65.04,1.04.15,2.07.24,3.11.03.31.02.82.2.9,1.93.97,1.37,2.84,1.62,4.4.15.92-.01,1.82,1.09,2.45.85.49.71,1.68.85,2.63.24,1.72-.37,3.72,1.66,4.93.38.23.23,1.35.31,2.07.16,1.42-.34,3,1.53,3.9.66.32.33,1.63.44,2.5.16,1.29-.19,2.69,1.4,3.53.66.35.37,1.47.48,2.25.21,1.4-.42,3.08,1.46,3.9.26.12.3.87.35,1.33.1,1.03.13,2.07.2,3.11.05.81.11,1.86.72,2.21,1.35.76,1.14,1.96,1.32,3.1.21,1.35-.17,2.86,1.4,3.81.41.25.31,1.34.44,2.04.26,1.4-.18,2.95,1.52,3.95.69.4.49,1.77.59,2.72.14,1.27-.24,2.67,1.28,3.59.56.34.57,1.43.61,2.25.05,1.12.17,2.23.28,3.34.04.39-.03.98.33,1.09,1.85.56,1.29,2.13,1.46,3.37.16,1.23-.04,2.49,1.44,3.26.66.34.33,1.48.43,2.26.18,1.44-.18,2.96,1.49,3.99.7.43.44,1.78.52,2.73.11,1.23-.07,2.49,1.22,3.42.79.57.6,1.74.69,2.7.16,1.62-.04,3.33,1.56,4.56.67.51.41,1.65.57,2.5.24,1.28-.03,2.65,1.32,3.65.48.35.41,1.48.54,2.26.24,1.35.08,2.67,1.42,3.81.94.8.69,2.54.77,3.9.08,1.32-.15,2.74,1.43,3.49.46.22.32.86.36,1.33.08,1.04.15,2.07.25,3.11.04.39.05,1.04.25,1.12,1.83.69,1.32,2.3,1.51,3.63.16,1.11-.16,2.32,1.35,2.99.78.35.5,1.6.59,2.45.15,1.39-.03,2.77,1.32,3.88.77.63.59,1.93.63,2.97.05,1.11-.13,2.36.56,3.26.63.82,1.61,1.3,1.97,2.45.13.42,1.05.32,1.16-.48.14-1.03.2-2.07.32-3.1.1-.85.04-1.74,1.15-2.13.83-.29.6-1.25.73-1.9.31-1.58,0-3.31,1.59-4.52.43-.33.37-1.34.48-2.05.21-1.28,0-2.64,1.54-3.47.72-.39.4-1.62.54-2.48.2-1.27-.15-2.61,1.4-3.5.73-.42.42-1.78.54-2.72.14-1.13-.16-2.4,1.37-3,.75-.29.42-1.29.54-1.98.26-1.45-.04-3.04,1.61-4,.62-.36.29-1.34.37-2.04.17-1.4-.07-2.85,1.56-3.72.72-.38.35-1.48.44-2.25.16-1.33.04-2.69,1.47-3.56.67-.41.37-1.33.41-2.03.08-1.39.25-2.72,1.38-3.69.49-.42.49-.95.55-1.51.13-1.29-.17-2.66,1.43-3.5.65-.34.54-1.59.64-2.47.15-1.21-.05-2.47,1.28-3.4.7-.49.52-1.77.66-2.71.16-1.11-.06-2.28,1.3-3.08.8-.47.67-1.86.81-2.89.14-1.02-.07-2.12,1.2-2.88.83-.5.61-1.88.72-2.91.12-1.12-.15-2.39,1.36-3.01.72-.29.43-1.29.57-1.98.3-1.45-.35-3.17,1.54-4.15.42-.22.3-1.48.42-2.27.18-1.26-.26-2.71,1.54-3.33.62-.21.36-1.31.46-2.01.18-1.39-.03-2.8,1.45-3.82.74-.52.33-1.8.52-2.73.24-1.17-.14-2.54,1.44-3.25.71-.32.47-1.46.59-2.22.23-1.37.03-2.78,1.48-3.77.46-.32.38-1.48.49-2.26.19-1.32.05-2.75,1.58-3.48.49-.23.36-.84.4-1.31.09-.95.16-1.91.27-2.86.05-.39.08-1.02.29-1.11,1.78-.73,1.31-2.31,1.48-3.65.14-1.06-.06-2.22,1.32-2.8.77-.32.39-1.29.51-1.97.17-.97-.07-1.97,1.18-2.64.92-.5.74-1.83.84-2.87.11-1.12-.08-2.24,1.22-3.1.86-.57.64-2.05.72-3.17.07-.99-.07-1.99,1.2-2.6.92-.44.65-1.69.76-2.62.14-1.2-.26-2.54,1.39-3.23.7-.29.45-1.45.52-2.22.32-3.34.3-3.38,3.63-3.39,10.16-.02,20.32,0,30.48,0,.4,0,.8,0,1.2.04,1.85.19,1.89.22,2.19,2.13.13.87.23,1.74.34,2.61.05.39-.03.92.33,1.1,1.63.81,1.39,2.32,1.57,3.72.12.96-.04,2.06,1.27,2.57.73.29.46,1.28.59,1.97.29,1.44-.48,3.24,1.62,4.05.34.13.3,1.32.39,2.03.18,1.45-.16,2.99,1.5,4,.65.4.36,1.64.45,2.5.14,1.23-.03,2.45,1.38,3.3.77.46.39,1.77.55,2.7.2,1.18-.21,2.54,1.47,3.19.68.26.41,1.46.52,2.23.18,1.26.13,2.53,1.41,3.36.7.45.4,1.33.47,2.01.16,1.49.05,3.01,1.61,4.01.72.47.36,1.49.5,2.26.25,1.36,0,2.8,1.46,3.79.69.47.37,1.65.5,2.51.18,1.24.03,2.55,1.49,3.26.76.37.42,1.3.52,1.98.14,1,0,1.97,1.07,2.74.72.52.83,1.64.88,2.64.05,1.12-.19,2.31,1.25,3.05.66.34.65,1.55.72,2.45.09,1.38-.08,2.77,1.33,3.84.81.61.53,1.93.64,2.97.1.97-.18,2.08,1.27,2.52.75.23.53,1.27.63,1.94.24,1.58-.25,3.28,1.53,4.46.69.46.38,1.8.49,2.75.23,1.99.28,2.02,2.21,2.54.79.21,1.59.18,2.38.18,42.32,0,84.64,0,126.96,0,.48,0,.96-.02,1.44-.02.97,0,1.5-.42,1.5-1.43,0-.56.01-1.12.01-1.68,0-10.24.02-20.48,0-30.72,0-3.52-.13-7.03-.21-10.55-.01-.55.16-1.25-.29-1.61-1.64-1.29-1.39-3.12-1.52-4.84-.09-1.12-.11-2.24-.2-3.35-.04-.47-.01-1.17-.29-1.36-1.61-1.08-1.37-2.77-1.56-4.31-.11-.84.06-1.75-1.2-1.99-.82-.16-.46-1.07-.63-1.64-.27-.93.04-2.06-1.39-2.46-.76-.21-.47-1.27-.62-1.94-.18-.8-.16-1.62-1.26-1.7-.15-.01-.42-.13-.41-.19.07-1.63-1.69-2.09-2.17-3.41-.37-1-.4-2.48-2.09-2.4-.42-1.74-1.85-1.93-3.28-2.12-.39-.05-.54-.37-.57-.68-.08-.77-.44-1.16-1.23-1.13-.16,0-.43,0-.46-.08-.82-2.07-2.78-1.65-4.38-2.02-.31-.07-.7-.17-.86-.4-1.05-1.44-2.59-1.25-4.07-1.37-1.24-.09-2.55.03-3.42-1.27-.42-.63-1.33-.5-2.02-.52-5.03-.18-10.07-.45-15.11-.33-3.04.07-6.08.16-9.11.3-1.17.05-2.36.02-3.21,1.2-.48.66-1.46.55-2.25.62-1.19.11-2.39.12-3.59.21-.77.06-1.52,0-1.95,1-.41.96-1.54.69-2.36.77-.91.09-1.67.19-2.3.99-.37.47-1,.85-1.65.88-1,.05-1.95.09-2.22,1.33-.01.07-.1.15-.16.16-1.72.36-3.15,1.25-4.57,2.26-.84.6-2.48.04-2.5,1.86,0,.29-.49.35-.81.36-.61.03-1.13.18-1.17.91-.04.73-.5.91-1.12.96-.32.02-.62.12-.79.45-.76,1.54-2.2,2.41-3.48,3.41-.66.52-.36,1.78-.94,1.8-1.77.08-1.36,2.51-3.02,2.53-.14,1.68-2.08,2.19-2.44,3.74-.22.93.01,2.12-1.49,2.32-.47.06-.37.81-.46,1.27-.19,1.03.03,2.27-1.57,2.52-.48.07-.33.82-.41,1.28-.21,1.11.17,2.48-1.44,2.95-.39.11-.36.67-.4,1.06-.07.72-.12,1.43-.19,2.15-.2,2.15-.93,2.65-3.11,2.2-.32-.07-.71-.11-.72-.48-.07-1.47-1.24-1.25-2.12-1.37-1.02-.14-2.04-.03-2.53-1.32-.23-.61-1.13-.53-1.74-.58-1.38-.12-2.72-.19-3.49-1.61-.1-.18-.4-.39-.58-.36-2.04.32-3.18-1.34-4.71-2.13-.87-.45-.93-1.56,0-2,.8-.38,1.01-.86,1.14-1.61.19-1.02-.04-2.22,1.55-2.56.69-.15.34-1.29.51-1.96.19-.77.03-1.65,1.23-1.64.48,0,.69-.35.68-.8-.04-1.15.58-1.96,1.37-2.67.37-.34.65-.68.69-1.2.02-.31.06-.83.22-.88,2.45-.88,2.64-4.03,5.02-4.95.12-.05.22-.24.27-.38.33-.89.44-1.93,1.01-2.62.46-.56,1.7-.32,1.78-1.54.03-.43.54-.5.93-.63,1.05-.34,2.53-.1,2.56-1.85,1.7.1,1.65-2.35,3.33-2.29.88-1.57,2.47-1.76,3.98-2.28.76-.26.81-1.9,2.18-1.72,1.08-2.13,4.04-1.17,5.27-3.19.28-.47,1.21-.67,1.96-.75,1.28-.13,2.68.11,3.37-1.57.23-.56,1.33-.3,2.04-.38,1.37-.16,2.92.2,3.61-1.61.17-.46.85-.31,1.32-.34,1.04-.07,2.08-.12,3.11-.19.46-.03,1.11.09,1.27-.45.46-1.51,1.71-1.2,2.76-1.27,1.51-.11,3.04-.09,4.56-.16,1.34-.06,2.69,0,3.74-1.17.55-.61,1.44-.59,2.26-.6,10.88-.22,21.76-.18,32.63-.06,2.24.03,4.48.11,6.71.16.72.02,1.56-.05,2.04.51,1.03,1.23,2.4,1.1,3.74,1.15,2.48.09,4.96.14,7.44.19.81.02,1.73-.08,2.27.54,1.16,1.33,2.65,1.24,4.16,1.27.88.01,1.76.03,2.64.11.85.08,1.8-.01,2.15,1.12.21.68.86.6,1.41.65.96.08,1.91.15,2.86.26.47.06,1.2.04,1.36.32,1,1.74,2.72,1.27,4.21,1.56.81.16,1.78.13,2.13,1.23.25.79,1.07.52,1.65.68,1.01.27,2.33-.1,2.79,1.37.06.19.54.26.84.36,1.21.41,2.79.14,3.27,1.84,2.17.1,3.64,1.8,5.56,2.43.84.27,1.73.18,1.86,1.37.04.35.43.44.75.47,1.27.1,2.28.58,2.92,1.77.35.65,1.68.21,1.66.57-.11,2.05,2.97,1.22,2.75,3.22,1.57-.03,1.66,1.94,3.01,2.22.32.07.58.23.75.53.84,1.52,2.36,2.41,3.42,3.64.83.97,2.26,1.63,2.47,3.12.06.46.31.75.76.76.76.03,1.2.32,1.16,1.15-.01.22.12.65.17.65,1.92-.05,1.37,2.28,2.72,2.81.62.24.76,1.03.87,1.64.16.88.13,1.74,1.37,1.86.56.05.49.71.64,1.16.35,1.04-.03,2.48,1.62,2.86.47.11.28.85.42,1.3.32.99.1,2.31,1.58,2.64.33.07.34.5.39.82.19,1.33,0,2.71,1.51,3.66.65.41.45,1.77.55,2.73.1,1.03-.19,2.28,1.31,2.75.58.18.47.96.52,1.5.11,1.35.17,2.71.27,4.07.07.86.01,1.74,1.05,2.22.78.37.58,1.26.62,1.94.13,1.99.19,3.99.29,5.99.03.63-.11,1.36.47,1.79,1.28.95,1.27,2.31,1.31,3.68.03,1.12.11,2.24.38,3.33.1.4.25.8.74.79.51,0,.61-.42.64-.83.04-.56.08-1.12.1-1.68.07-2.24.13-4.48.19-6.72.05-1.67-.06-3.37,1.47-4.58.4-.32.29-.89.32-1.36.09-1.28.11-2.56.28-3.83.15-1.13-.03-2.34,1.16-3.23.64-.49.56-1.61.64-2.49.11-1.19.41-2.38.39-3.56-.02-1.25,1.66-.94,1.67-2.09,0-.95-.22-2.35.3-2.78,1.72-1.43,1.61-3.34,1.93-5.18.03-.15.07-.41.16-.43,1.89-.47,1.52-2.13,1.84-3.44.02-.08,0-.21.05-.23,1.91-.92,1.5-3.36,2.98-4.55.4-.32.63-.69.63-1.22,0-.31-.03-.84.27-.85,1.86-.07,1.66-1.67,1.93-2.73.27-1.02,1.58-.97,1.65-1.85.09-1.1.62-1.44,1.59-1.68.92-.23.27-2.05,1.72-1.95.32-1.6,2.33-1.75,2.78-3.23.14-.44.39-.69.84-.71.82-.03,1.08-.52,1.11-1.25.02-.48.36-.71.81-.68.93.05,1.29-.43,1.29-1.29,0-.08.03-.22.05-.22,1.83-.14,2.34-2.47,4.22-2.55.65-.03,1.31-.12,1.35-1.02,0-.15.08-.43.14-.43,1.41-.14,2.17-1.2,3.13-2.04.36-.32,1.07-.25,1.62-.35.31-.06.78-.02.84-.33.36-1.7,1.83-1.45,2.98-1.77.31-.08.84-.08.89-.24.58-1.68,2.08-1.4,3.33-1.67.3-.06.79-.12.86-.31.66-1.76,2.23-1.47,3.59-1.68,1.06-.16,2.11-.12,2.87-1.31.47-.73,1.76-.5,2.71-.62,1.19-.15,2.61.2,3.18-1.45.17-.5.83-.36,1.3-.39,1.28-.08,2.56-.09,3.83-.2,1.07-.09,2.21.11,2.85-1.23.32-.68,1.3-.49,2-.52,2.64-.11,5.28-.16,7.91-.26.63-.02,1.37.19,1.83-.35,1.27-1.47,3.01-1.35,4.66-1.38,10.4-.15,20.8-.26,31.19.03,1.24.03,2.6-.18,3.32,1.32.29.6,1,.38,1.53.41,1.6.09,3.2.13,4.79.21.47.02,1.24-.02,1.36.23,1.1,2.2,3.17,1.32,4.84,1.61.7.12,1.43.1,2.15.14.32.02.78.04.84.33.35,1.86,1.88,1.34,3.04,1.56.23.04.51-.04.71.05,1.9.87,3.66,2.09,5.82,2.3.68,1.72,2.25,1.72,3.71,1.93.92,2.07,3.9,1.15,4.76,3.3,1.83.02,2.36,2.02,4.07,2.56,1.39.43,3.05,1.46,3.82,3.1.2.42.51.58.93.6.4.02.98.02.99.45.05,1.09.5,1.6,1.6,1.6.14,0,.33.31.41.51.09.22.08.47.1.71.11,1.12,1.69.75,1.87,1.96.13.87.33,1.93,1.44,2.31.79.27.48,1.34.81,1.54,1.65.95,1.81,2.51,2,4.1,0,.07.05.18.11.2,2.05.81,1.4,2.7,1.71,4.22.17.83.12,1.77,1.05,2.3.74.42.62,1.27.67,1.95.36,4.31.18,8.63.04,12.94-.02.78-.06,1.7-.69,2.24-.99.84-1,1.96-1.1,3.05-.15,1.53.14,3.14-1.42,4.27-.41.29-.48,1.17-.54,1.79-.11,1.15-.24,2.22-1.41,2.85-.45.24-.63.7-.62,1.22.02.64-.17,1.1-.92,1.1-.72,0-.96.44-.97,1.09,0,.6-.37.84-.92.87-.53.03-.96.2-.97.81,0,.79-.36,1.17-1.16,1.18-.23,0-.62.09-.65.2-.42,1.91-2.02,1.65-3.36,1.84-.33.05-.7.15-.78.46-.42,1.59-1.8,1.33-2.91,1.5-1.39.21-2.8.03-3.98,1.2-.56.56-1.65.48-2.54.48-3.68.02-7.36.03-11.04.06-.73,0-1.57.03-2.08-.43-1.31-1.2-2.89-1.13-4.47-1.28-1.19-.11-2.65.23-3.16-1.48-.07-.23-.69-.33-1.07-.42-.54-.13-1.1-.3-1.64-.28-1.18.04-.81-1.51-1.83-1.64-.86-.11-1.71-.38-2.56-.57.26-1.87-2.58-1.4-2.42-3.2,0-.06-.08-.19-.11-.18-2.16.17-1.59-2.42-3.06-3.04-.42-.18-.56-1.1-.75-1.7-.12-.37.02-.99-.34-1.09-1.87-.51-1.36-2.09-1.55-3.33-.16-1.04-.21-2.1-1.22-2.73-.68-.42-.58-1.08-.61-1.71-.21-4.8-.2-9.6-.03-14.39.03-.85-.01-1.65.96-2.26.94-.58.77-1.82.92-2.85.15-1.06-.37-2.48,1.43-2.83.61-.12.29-.98.44-1.49.26-.9-.14-2.23,1.46-2.3.12,0,.34-.18.35-.29.08-1.11.61-1.71,1.62-2.31.63-.37.8-1.64,1.92-1.77-.02-1.81,2.49-1.5,2.66-3.15,1.92-.21,2.45-3.09,4.81-2.51.27.07.83-.08.87-.23.6-2.13,2.38-1.37,3.75-1.58.47-.07.96-.08,1.43-.11.43-.03.8-.15.82-.66.02-.47.08-1.04-.55-1.15-.77-.13-1.25-.44-1.56-1.24-.36-.94-1.39-.61-2.12-.74-1.36-.24-2.86.13-3.75-1.52-.32-.58-1.35-.32-2.05-.38-2.03-.19-4.19.15-5.76-1.71-.23-.27-.9-.22-1.37-.25-6.39-.33-12.78-.4-19.17,0-1.24.08-2.45.06-3.43,1.24-.64.77-1.94.52-2.97.64-1.12.13-2.49-.24-3.04,1.28-.02.07-.1.14-.17.17-.89.41-1.84.51-2.8.6-1.02.1-.77,1.66-2.07,1.72-1.03.04-2.56-.08-2.53,1.77,0,.1-.53.29-.83.31-.66.04-1.06.28-1.07.99,0,.57-.31.91-.88.89-.86-.03-1.11.45-1.1,1.19,0,.08-.02.16-.03.24-.15,1.01-1.81.31-1.77,1.6.03.92-.37,1.87-1.06,2.32-.98.64-1.02,1.49-1.2,2.43-.17.87,0,1.96-1.23,2.37-.5.16-.39.82-.43,1.28-.14,1.35-.22,2.71-.41,4.05-.12.84-.14,1.75-1.08,2.27-.86.47-.61,1.41-.64,2.18-.15,4.31-.27,8.63-.4,12.95-.03,1.03.12,2.08-.89,2.83-.47.35-.45,1.01-.49,1.56-.07.96-.12,1.91-.12,2.87,0,20.64,0,41.28,0,61.92,0,1.97-.27,4,1.26,5.66.43.46.21,1.23.23,1.87.14,8.07.27,16.15.44,24.22.02,1.14-.31,2.41,1.16,3.1.53.25.35,1.02.39,1.56.18,2.23.29,4.47.49,6.7.11,1.29-.13,2.65,1.18,3.68.48.38.42,1.48.53,2.26.17,1.18.25,2.38.4,3.57.05.39.13,1.04.32,1.09,1.75.46,1.35,1.95,1.58,3.13.09.46,0,1.05.6,1.17,1.2.24,1.09,1.21,1.25,2.03.18.9.03,2.02,1.48,2.03.38,0,.48.39.5.71.04.73.28,1.22,1.11,1.27.62.03.74.52.77,1.02.03.54.23.95.84.94.79-.01,1.18.32,1.19,1.12,0,.47.32.77.76.74.93-.05,1.28.39,1.34,1.25.03.48.43.6.85.66,1.23.18,2.52.14,3.16,1.63.27.62,1.18.29,1.78.43.89.2,1.97-.03,2.28,1.27.13.54.77.49,1.22.56,1.26.18,2.54.3,3.8.49.63.09,1.5.07,1.81.46.96,1.19,2.23,1.11,3.47,1.18,6,.31,11.99.23,17.99-.03,1.42-.06,2.75-.2,3.99-1.21.96-.78,2.46-.48,3.73-.66,1.28-.19,2.7.08,3.41-1.56.29-.68,1.32-.34,2-.54.71-.21,1.67.1,1.81-1.1.05-.43.49-.58.91-.65,1.27-.22,2.8,0,3.11-1.84,1.76.25,1.8-2.2,3.43-2.19.35,0,.62-.25.64-.59.06-.91.65-1.14,1.41-1.33,2.17-.53,3.14-2.38,4.17-4.08.43-.72.39-1.73,1.58-1.79.34-.02.52-.38.55-.7.07-.79.28-1.4,1.21-1.49.48-.04.6-.43.66-.85.04-.3.13-.84.26-.86,1.86-.31,1.69-1.99,2.21-3.19l2.96-3.12c.68-.41.4-1.15.6-1.72.28-.82-.09-2.04,1.42-2.1.46-.02.46-.59.49-.98.38-4-.16-7.99-.13-11.98,0-.3-.12-.66-.32-.88-1.78-1.99-1.55-3.95-.11-6.02.6-.87.48-2,.5-3.03.08-2.96.14-5.92.23-8.87.02-.78.01-1.5.84-2.08,1.02-.7.91-1.96.98-3.07.1-1.59.02-3.24,1.56-4.31.35-.24.43-.67.41-1.08-.06-1.06.48-1.84,1.18-2.51.48-.46.92-.86.88-1.6-.03-.54.19-.95.78-1,.66-.06.75-.58,1.08-1,1.1-1.36,1.68-3.19,2.86-4.26,1.18-1.05,2.11-2.78,4.05-2.91.44-.03.71-.35.81-.77.17-.72.59-1.08,1.35-1.09.44,0,.77-.23.81-.71.05-.81.51-1.1,1.26-1.1.23,0,.61-.06.66-.19.63-1.61,1.98-1.91,3.48-1.97.14,0,.39-.13.39-.22.19-1.94,1.76-1.41,2.91-1.64.37-.07.98.1,1.05-.34.31-1.82,1.79-1.46,2.96-1.67.39-.07.97-.02,1.06-.4.4-1.66,1.78-1.28,2.88-1.45,1.17-.18,2.43-.07,3.06-1.42.24-.53.77-.48,1.24-.54,1.3-.18,2.66,0,3.61-1.38.4-.57,1.46-.47,2.26-.55,1.85-.19,3.85.12,5.25-1.69.29-.38,1.19-.34,1.82-.39,1.27-.11,2.55-.14,3.83-.23.77-.06,1.53,0,2.11-.82.54-.75,1.58-.7,2.43-.78,1.43-.15,2.87-.13,4.31-.22,1.31-.08,2.49-.11,3.77-.98,1.29-.88,3.22-.71,4.89-.78,2.72-.11,5.43-.19,8.15-.31.87-.04,1.7-.09,2.39-.85.67-.74,1.66-.87,2.65-.88,1.92-.02,3.84-.08,5.76-.17,1.16-.05,2.4.14,3.13-1.21.33-.61,1.16-.43,1.78-.47,2-.12,3.99-.18,5.99-.29.79-.04,1.63-.01,1.95-1.02.22-.67.85-.63,1.4-.67,1.04-.08,2.07-.16,3.11-.23.47-.04,1.04.1,1.37-.3,1.21-1.48,2.88-1.56,4.57-1.62.47-.02,1.11.07,1.26-.46.41-1.46,1.65-1.3,2.69-1.48.73-.12,1.44-.13,1.77-.95.06-.14.2-.32.32-.34,2.01-.28,3.45-1.65,5.12-2.6.83-.47,2.08-.31,2.13-1.75,0-.14.52-.27.81-.39.28-.12.83-.24.83-.34-.07-2.22,2.52-3.26,2.4-5.53-.04-.81.21-1.62,1.03-2.27.74-.59.76-1.72.76-2.68.01-7.68.01-15.36,0-23.04,0-.55.15-1.26-.38-1.56-1.31-.75-1.14-1.97-1.24-3.15-.13-1.59-.26-3.18-.47-4.77-.11-.82-.02-1.69-1.07-2.21-.85-.42-.59-1.57-.79-2.39-.17-.72-.15-1.44-1.13-1.54-.21-.02-.56-.21-.57-.34-.19-1.83-2.33-2.58-2.46-4.43-.02-.22-.16-.61-.26-.61-1.77-.05-2.62-1.55-3.9-2.36-.63-.4-1.53-.32-1.56-1.38,0-.07-.06-.2-.1-.2-2.08,0-3.22-2.2-5.29-2.27-1.59-.05-3.2-.08-4.34-1.54-.43-.55-1.19-.37-1.82-.4-6.87-.4-13.75-.25-20.62.02-.4.02-.92-.07-1.17.14-2.5,2.15-5.57,1.5-8.45,1.77-.79.08-1.6.05-2.4.1-.39.03-.95-.02-1.14.21-1.42,1.75-3.41,1.46-5.29,1.61-1.23.1-2.44-.05-3.44,1.17-.69.86-2.08.62-3.17.81-.58.1-1.39-.11-1.65.69-.27.86.36,1.08,1.03,1.27.33.09.47.42.51.75.09.77.51,1.04,1.28,1.09,1.12.07,2.27.23,2.59,1.64.02.07.08.17.15.18,1.1.28,1.57,1.14,2.28,1.96,2.16,2.5,2.77,3.04,3.71,5.69.08.21.18.54.33.58,1.72.45,1.36,1.89,1.57,3.1.19,1.1-.26,2.47,1.27,3.07.5.2.4.83.43,1.3.45,6.23.45,12.46.09,18.7-.02.38-.04,1-.26,1.11-1.67.81-1.33,2.37-1.55,3.74-.13.78-.25,1.62-1.09,2.02-.64.31-.97.79-.97,1.51,0,.55-.28.89-.86.94-.53.05-.92.27-.93.87,0,.8-.42,1.14-1.19,1.16-.45,0-.78.26-.78.72,0,.96-.55,1.23-1.38,1.22-.15,0-.41.08-.43.15-.33,1.97-1.95,1.68-3.28,1.86-.34.05-.7.15-.74.48-.16,1.55-1.38,1.28-2.35,1.4-1.34.16-2.74.09-3.66,1.37-.38.53-1.01.39-1.55.42-6.47.36-12.95.3-19.43.02-1.03-.05-2.03-.12-2.68-1.22-.46-.79-1.47-.45-2.23-.58-.93-.15-1.86.02-2.24-1.29-.26-.92-1.37-.62-2.11-.75-.76-.13-1.44-.14-1.46-1.15,0-.47-.31-.73-.78-.71-.91.03-1.3-.41-1.31-1.29,0-.34-.21-.61-.59-.63-.84-.04-1.37-.36-1.34-1.29,0-.15-.06-.42-.13-.43-1.88-.3-1.34-2.57-2.26-3.1-1.66-.95-1.11-3.03-2.7-3.92-.8-.45-.6-1.73-.71-2.68-.13-1.13.1-2.35-1.26-3.12-.64-.36-.61-1.43-.65-2.22-.2-3.76-.22-7.51.03-11.27.03-.47,0-1.17.27-1.36,1.81-1.28,1.43-3.23,1.63-4.98.14-1.19.05-2.43,1.43-3.04.42-.18.45-.64.44-1.04-.02-.81.26-1.34,1.07-1.65.55-.21.71-.86.85-1.39.26-.98.23-2.12,1.67-2.18-.11-1.73,2.36-1.59,2.37-3.26,0-.5.46-.6.87-.63.52-.04.96-.17.96-.81,0-.83.43-1.12,1.2-1.12.23,0,.67-.12.66-.15-.16-1.87,2.35-1.42,2.56-2.96.05-.35.35-.49.69-.55,1.3-.23,2.75-.21,3.14-1.92,2,0,2.74-2.69,4.92-2.3.07.01.19,0,.23-.04,1.51-1.65,3.58-1.9,5.6-2.24.95-1.91,2.79-1.69,4.47-1.87,1.68-2.33,4.3-1.49,6.53-1.96.46-.1,1.16.03,1.31-.42.57-1.74,2.02-1.23,3.2-1.36.95-.1,1.92-.05,2.88-.1,1.09-.06,2.16.03,3.01-1.05.6-.77,1.71-.72,2.69-.74,2.88-.05,5.76-.14,8.63-.24.62-.02,1.35.16,1.82-.39,1.08-1.25,2.55-1.22,3.98-1.26,2.88-.09,5.76-.16,8.63-.17,21.12-.01,42.24,0,63.36,0ZM756.16,212.64c0-13.27,0-26.55,0-39.82,0-.64,0-1.28-.01-1.92-.01-.48-.04-1-.67-1.09-.57-.08-1.15-.11-1.38.6-.18.55-.37,1.15-1.07,1.07-2.13-.23-2.79,2.35-4.74,2.44-.69,1.5-2.07,1.51-3.43,1.67-.62.07-1.56.18-1.77.58-.83,1.58-2.28,1.45-3.65,1.63-.3.04-.78.11-.86.29-.62,1.52-2,1.35-3.22,1.53-.39.06-.88,0-1.09.37-.91,1.56-2.47,1.56-3.96,1.76-.52.07-1.32-.14-1.47.52-.29,1.33-1.32,1.12-2.21,1.33-.59.14-1.58-.14-1.72.53-.33,1.66-1.62,1.21-2.61,1.44-.58.14-1.43-.2-1.59.67-.2,1.08-.94,1.06-1.75,1.18-.99.15-2.41-.3-2.51,1.47,0,.14-.33.35-.53.38-1.42.24-3.09-.01-3.67,1.87-1.61.18-3.04.68-3.86,2.23-1.67-.02-1.88,2.19-3.48,2.27-1.02,2.12-3.37,2.98-4.61,4.97-.46.74-1.78.93-1.7,2.22,0,.1-.36.33-.55.33-.99.02-1.15.65-1.17,1.44,0,.34-.17.65-.54.66-1.28.05-1.14,1.07-1.36,1.89-.18.67.23,1.67-.55,1.96-1.28.48-1.26,1.5-1.42,2.51-.22,1.41.36,3.15-1.64,3.84-.19.06-.21.73-.24,1.11-.1,1.59-.11,3.2-.28,4.78-.17,1.65-.13,3.48-.86,4.87-.56,1.06-.79,2-.8,3.09-.01,1.28-.06,2.56,0,3.84.13,2.24-.58,4.63,1.11,6.62.17.2.07.62.11.94.44,3.09.53,6.2.68,9.3.05,1.09-.33,2.48,1.38,2.87.4.09.41.68.36,1.06-.36,2.59,2.36,4.08,2.3,6.54,2.17.6,1.13,3.84,3.51,4.27-.38,2.04,2.41,1.68,2.58,3.42.05.51,1.47,0,1.55.76.15,1.47,1.17,1.6,2.17,1.56,1.43-.05,1.29,1.8,2.54,1.88.56.03,1.11.11,1.67.18.39.05.94.05,1.06.44.52,1.71,1.97,1.39,3.15,1.39,2.09.02,4.42-.02,6.09.86,2.52,1.32,4.93.77,7.4.84.46.01,1.06-.01,1.38-.28,1.55-1.29,3.42-1.18,5.23-1.35,1.11-.1,2.23-.15,3.35-.23.56-.04,1.16-.08,1.3-.79.22-1.11,1.1-.91,1.87-1.02,1.02-.14,2.34.24,2.54-1.45.05-.46.63-.35,1.01-.42,1.17-.19,2.68.17,2.79-1.75,0-.12.39-.33.59-.32,1.62.04,1.49-2.37,3.16-2.23-.18-1.87,2.6-1.75,2.43-3.61,1.79-.81,1.58-2.56,1.9-4.06.12-.54.09-1.33.44-1.57,1.66-1.12,1.3-2.8,1.31-4.33.03-13.35.02-26.71.02-40.06ZM358.43,191.5c-8.87,0-17.75,0-26.62,0q-4.5,0-4.51,4.58c0,13.43-.03,26.86.01,40.29.02,4.63.19,9.26.35,13.89.03.84-.2,1.81.53,2.5,1.1,1.03,1.2,2.36,1.27,3.72.07,1.44.14,2.87.23,4.31.03.47-.11,1.15.31,1.34,1.63.72,1.33,2.18,1.48,3.48.04.39-.05.91.37,1.07,2.01.79.87,3.91,3.27,4.38.03,0,.06.15.06.22.05,2.08,1.47,2.87,3.13,3.66.89.42,1.33,1.67,2.58,1.71.12,0,.3.37.32.59.11,1,.88.93,1.58,1.09,1.24.28,2.73-.03,3.66.9.92.93,1.96,1.02,3.05,1.05,4,.11,7.99.18,11.99-.08.55-.04,1.27.11,1.59-.34.89-1.25,2.22-1.03,3.44-1.3,1.65-.36,3.81.35,4.62-1.99.02-.06.14-.13.2-.12,1.53.41,1.87-1.26,2.93-1.69,1.1-.44,2.49-.63,2.67-2.22,1.7-.24,1.73-1.78,2.23-2.93.17-.38.34-.64.7-.88,1.24-.86,1.87-2.27,2.58-3.49.7-1.2.35-2.96,1.91-3.82.2-.11.25-.58.3-.89.27-1.81.06-3.69,1.63-5.2.7-.67.32-2,.43-3.02.28-2.63-.33-5.46,1.75-7.7.22-.23.13-.77.14-1.16.05-1.44.1-2.88.11-4.31.04-14.39.08-28.78.11-43.17,0-1.04-.11-2.07-.12-3.11,0-1.05-.56-1.4-1.52-1.36-.56.02-1.12,0-1.68,0-9.03,0-18.07,0-27.1,0Z"/>
      <path d="M1211.2,85.91c1.34-1.75,2.76-2.64,5.05-2.63,33.04.08,66.07.05,99.11.05.32,0,.64,0,.96,0,2.28.06,2.93.7,2.97,3.06.04,2.88,0,5.76.02,8.64,0,1.01-.06,2.06.75,3.01.87-.57,1.39-1.69,2.59-1.46.57-1.9,2.31-1.72,3.73-2.14.43-.13.53-.55.6-.96.07-.46.37-.72.81-.73.87-.02,1.47-.39,1.99-1.11.81-1.14,2.73-.44,3.32-1.54.74-1.37,1.86-1.29,2.99-1.51.31-.06.8-.09.87-.27.68-1.76,2.25-1.42,3.62-1.63.96-.15,2.15.07,2.41-1.41.1-.57.77-.44,1.23-.47.96-.07,1.91-.12,2.87-.19.72-.05,1.44-.02,1.66-.99.19-.84.97-.69,1.58-.72,1.68-.08,3.36-.13,5.03-.22.54-.03,1.21.13,1.49-.5.59-1.33,1.8-1.19,2.88-1.23,8.32-.26,16.63-.2,24.95-.09,1.2.02,2.4.05,3.6.06,1.38.02,2.73.08,3.71,1.27.47.58,1.15.46,1.78.48,1.76.07,3.52.14,5.27.18.74.02,1.62,0,2.02.55,1.01,1.42,2.44,1.21,3.85,1.32,1.26.1,2.79-.4,3.32,1.51.16.58.99.3,1.52.39,1.05.19,2.24-.07,2.78,1.35.23.62,1.15.47,1.75.57,1.35.21,2.38.86,3.55,1.55,1.55.9,2.85,2.42,4.76,2.67.7.09,1.26.24,1.3,1.08,0,.15.08.42.15.43,1.78.2,2.33,2.47,4.22,2.48.69,0,1.25.22,1.34,1.05.06.54.39.87.94.9.67.03,1.02.35,1.04,1.03.02.6.41.84.94.84.65,0,1.08.21,1.08.95,0,.67.31,1.04,1,1.08.44.03.78.24.82.7.08.81.47,1.35,1.23,1.6.67.22.62.88.88,1.34.47.84.31,2.12,1.76,2.24.42.03.45.59.48,1,.02.41.1.91.54.96,1.38.17,1.25,1.29,1.39,2.17.14.9.15,1.7,1.35,1.9.71.12.43.92.57,1.42.28.97-.15,2.27,1.47,2.62.63.14.34,1.14.46,1.74.28,1.43-.12,3.11,1.67,3.95.22.1.24.72.28,1.1.09,1.12.14,2.23.21,3.35.03.55-.1,1.23.45,1.54,1.3.74,1.19,1.98,1.22,3.16.1,4.32.25,8.63.25,12.95.02,41.76.01,83.51.01,125.27,0,.56,0,1.12,0,1.68,0,3.16.27,3.51,3.55,3.54,6.16.07,12.32.02,18.48.03,3.23,0,3.6.36,3.62,3.55.01,2.16-.03,4.32.01,6.48.02,1.04-.41,1.45-1.42,1.4-.56-.03-1.12,0-1.68,0-37.52,0-75.03,0-112.55,0-3.35,0-3,.4-3.02-3.13-.01-1.84-.05-3.68.01-5.52.08-2.32.55-2.76,2.89-2.77,5.76-.02,11.52,0,17.28,0,.72,0,1.44-.02,2.16-.04,1.09-.03,1.59-.59,1.55-1.68-.02-.64,0-1.28,0-1.92,0-47.6,0-95.19-.01-142.79,0-3.36-.15-6.71-.28-10.07-.03-.85.05-1.79-1.13-2.11-.55-.15-.52-.74-.55-1.22-.05-.72-.07-1.44-.15-2.15-.06-.56.01-1.42-.3-1.6-1.63-.96-1.56-2.56-1.79-4.07-.05-.34-.33-.56-.66-.59-.93-.08-1.18-.65-1.18-1.48,0-.44-.26-.81-.7-.85-.81-.07-1.02-.54-1.15-1.25-.18-.96-1.67-.49-1.68-.97-.06-2.01-2.68-1.38-3.02-3.16-.09-.47-1.45-.36-2.24-.43-1.22-.12-2.6.17-3.25-1.4-.21-.5-.84-.38-1.3-.38-3.68-.01-7.36,0-11.03,0-.39,0-1,0-1.13.23-1.12,1.98-3.06,1.33-4.72,1.56-.63.09-1.28.1-1.91.11-.68.02-1.28.1-1.45.92-.07.32-.26.68-.6.66-2-.11-3.5.84-5.06,1.96-.87.62-2.36.21-2.88,1.67-.1.27-.85.31-1.3.46-.86.28-2.01.14-2.02,1.56,0,.33-.35.52-.69.54-.77.05-1.39.23-1.57,1.15-.08.43-.6.43-.96.59-1.08.47-2.6.39-2.74,2.1-1.68-.14-1.55,2.29-3.17,2.25-.14,0-.4.11-.41.19-.07,1.29-1.11,1.67-1.98,2.27-.33.22-.06,1.19-.51,1.24-1.54.17-1.38,1.54-1.88,2.42-.3.53-.27,1.28-1.11,1.39-.55.08-.93.48-.84.99.25,1.46-1.61.87-1.76,1.88-.13.87-.07,1.92-.8,2.44-.83.6-1.51,1.11-1.43,2.24.02.33-.21.65-.56.67-1.33.07-1.05,1.14-1.26,1.93-.22.83.24,2.06-1.34,2.11-.62.02-.46.72-.56,1.16-.25,1.16.14,2.55-1.48,3.2-.62.25-.43,1.3-.51,1.99-.16,1.33.03,2.75-1.48,3.53-.47.24-.38.84-.43,1.31-.13,1.19-.22,2.39-.38,3.57-.1.71-.06,1.66-.49,2.05-1.32,1.2-1.14,2.7-1.18,4.18-.1,4-.22,8-.22,11.99-.02,27.6-.02,55.19,0,82.79,0,2.32.1,4.64.22,6.95.07,1.37-.22,2.89,1.4,3.75.42.22.21.9.35,1.34.32.98,0,2.36,1.62,2.54.3.03.48.42.46.76-.07.92.53,1.42,1.1,2,.49.5,1.05,1.04,1.09,1.81.03.78.33,1.18,1.15,1.16.56-.01.84.37,1,.87.19.58.56.9,1.18,1.04,1.06.24,2.53-.05,2.56,1.75,0,.09.24.24.37.25,1.6.15,2.85.96,4.23,1.73,1.26.71,3.12.35,4.71.46.08,0,.16,0,.24.01,1.06.07,2.18.04,2.21,1.56,2.48,2.67,1,5.9,1.24,8.88.06.75-.64,1.11-1.27,1.23-.78.15-1.58.18-2.38.18-35.36,0-70.71,0-106.07,0-.87,0-1.76.13-2.6-.26-.36-.17-.79-.26-.83-.74-.05-.5.36-.64.71-.84,2.12-1.19,4.17-2.43,6.81-2.2,1.49.13,3.15.36,4.24-1.4.37-.6,1.62-.45,2.49-.55,1.21-.15,2.56.12,3.4-1.29.24-.4,1.15-.46,1.76-.59,1.42-.29,3.04.01,3.94-1.65.14-.27.9-.18,1.35-.31.92-.28,2.08-.07,2.36-1.53.14-.72,1.11-.4,1.69-.59.83-.27,2.02.13,2.17-1.34.06-.55.75-.43,1.2-.55,1.02-.27,2.31-.1,2.53-1.67.06-.43.63-.4,1.02-.42.49-.03,1.03-.04,1.1-.66.1-.87.52-1.28,1.41-1.23.14,0,.41-.09.42-.17.32-1.84,2.41-1.4,3.11-2.33.88-1.16,2.61-1.49,2.91-3.11,2.18-.68,1.8-3.62,3.88-4.4-.07-1.67,2.46-1.71,2.21-3.53-.04-.28.43-.43.76-.44.76-.02.76-.56.93-1.12.3-1,.27-2.27,1.68-2.62.46-.11.32-.68.49-.99.89-1.56,2.24-2.9,2.2-4.88,1.63-.63,1.8-2.04,1.87-3.51.01-.22.13-.58.28-.63,1.77-.56,1.35-2.09,1.58-3.37.18-1-.21-2.34,1.38-2.67.47-.1.41-.63.44-1.02.09-.95.14-1.91.27-2.86.07-.54-.1-1.29.42-1.56,1.53-.83,1.25-2.26,1.34-3.57.09-1.2.16-2.39.18-3.59.01-.75.15-1.57.65-2,1.22-1.04,1.14-2.38,1.16-3.72.04-3.76.21-7.51.63-11.25.04-.39-.04-.93.19-1.16,1.45-1.45,1.01-3.27,1.03-4.97.16-10.24.2-20.47,0-30.71-.04-1.97.01-3.88-1.03-5.78-.68-1.24-.56-2.95-.67-4.46-.13-1.83-.14-3.68-.19-5.51-.04-1.26,0-2.45-1.11-3.46-.59-.53-.72-1.55-.72-2.47,0-1.2-.08-2.4-.18-3.59-.05-.63,0-1.51-.37-1.83-1.72-1.46-1.27-3.47-1.54-5.29-.13-.84.05-1.8-1.19-2.02-.6-.11-.49-.74-.55-1.19-.14-1.03.03-2.24-.46-3.04-.92-1.51-1.87-2.93-1.85-4.78-1.88-.74-1.33-2.98-2.28-3.95-1.13-1.17-1.58-2.37-1.96-3.76l-2.82-2.89c-.13-.08-.38-.15-.38-.23-.05-1.9-2.3-2.57-2.46-4.39-.05-.53-.24-.91-.83-.98-.63-.07-1.04-.4-1.08-1.07-.03-.55-.28-.91-.84-.98-.81-.1-1.04-.61-1.06-1.33,0-.34-.16-.64-.5-.74-1.78-.54-2.94-1.81-3.88-3.32-.3-.48-.76-.53-1.21-.65-.94-.25-2.13-.11-2.25-1.61-.03-.39-.62-.42-1.02-.43-.4-.01-1.02-.02-1.04-.39-.06-1.87-1.6-1.38-2.61-1.75-.3-.11-.83-.14-.86-.3-.39-1.69-2.02-1.13-2.96-1.75-1.47-.97-2.93-1.82-4.68-2.12-.6-1.75-2.17-1.5-3.53-1.71-.31-.05-.79-.05-.89-.24-.99-1.73-2.73-1.34-4.24-1.59-.91-.15-1.83-.04-2.4-1.17-.39-.77-1.53-.74-2.39-.8-1.27-.1-2.55-.13-3.83-.21-1.11-.06-2.25-.03-2.97-1.18-.27-.43-.79-.5-1.29-.52-.82-.02-1.5-.36-2.2-.95Z"/>
      <path d="M1039.64,289.92c-21.6,0-43.2-.06-64.79.09-2.13.01-3.16-1.56-4.87-1.97-.39-.09-.31-.69-.31-1.08,0-2.4,0-4.8,0-7.2,0-.4-.06-.95.31-1.1,1.67-.65,2.85-2.33,4.89-2.24,1.11.05,2.23-.15,3.35-.24.47-.04,1.03.02,1.23-.53.33-.96,1.22-.96,1.95-1.16.95-.26,2.15-.06,2.15-1.61,0-.32.45-.42.78-.4.78.03,1.17-.32,1.25-1.1.03-.33.26-.67.6-.66,1.19.03,1.27-.93,1.71-1.66.36-.6,1.57-.41,1.54-1.53-.03-1.25,1.92-.43,1.88-1.77-.02-.89.15-1.9.84-2.42.9-.67,1.04-1.47,1.18-2.45.14-.97.12-2.05,1.3-2.63.57-.28.48-1.16.54-1.77.12-1.35.15-2.71.15-4.07,0-43.92,0-87.83,0-131.75,0-1.44-.05-2.88-.17-4.31-.07-.76-.05-1.64-.99-2.02-.2-.08-.48-.33-.47-.49.2-2.48-1.8-4.1-2.39-6.26-.08-.3-.09-.82-.26-.88-1.01-.37-1.48-1.05-2.01-2-.37-.65-1.48-1.01-1.69-2.02-1.71.15-1.65-2.41-3.4-2.22-.23.03-.49-.18-.49-.43.03-1.66-1.3-1.29-2.22-1.49-.76-.16-1.64,0-1.86-1.1-.11-.59-.65-.62-1.14-.65-1.04-.07-2.11-.35-3.1-.18-2.1.36-3.51-.73-4.95-1.93-.42-.35-.5-.79-.5-1.28,0-2.4.02-4.8-.01-7.2-.01-.99.36-1.48,1.39-1.47.88.01,1.76-.08,2.64-.08,7.68,0,15.36,0,23.04-.01,1.8,0,3.63.21,5.24-1.06.67-.53,1.71-.24,2.59-.24,9.76,0,19.52,0,29.28,0,23.2,0,46.4,0,69.59,0,.72,0,1.44-.03,2.16.02,1.57.1,2.14.7,2.2,2.22.03.72-.11,1.23-1,1.29-1.25.09-2.49.09-3.44,1.27-.34.42-1.34.36-2.04.43-1.19.12-2.39.14-3.59.24-.54.05-1.29-.07-1.55.46-.65,1.35-1.88,1.29-3.04,1.46-1.28.19-2.55.07-3.6,1.35-.61.75-2.1.51-3.19.7-.85.15-2-.06-2.2,1.33-.08.57-.71.51-1.18.59-1.11.19-2.44-.07-2.9,1.51-.14.5-.83.34-1.29.42-.97.18-2.13.02-2.43,1.41-.09.43-.59.59-.98.5-1.45-.31-1.15,1.35-1.93,1.67-.86.37-1.83.48-2.75.7.3,1.93-2.7,1.14-2.55,3.12.04.59-1.34.14-1.61.71-1.01,2.17-3.53,2.91-4.65,5.05-.38.74-1.66,1.07-1.73,2.25-1.78-.05-1.47,2.41-3.1,2.58-.49.05-.41.6-.51.97-.3,1.08-.09,2.47-1.74,2.74-.43.07-.36.65-.39,1.04-.03.32-.03.78-.34.82-1.71.24-1.43,1.63-1.64,2.73-.07.38.02.97-.4,1.04-1.47.24-1.3,1.39-1.43,2.38-.11.87-.08,1.76-1.3,1.96-.74.12-.5.87-.61,1.39-.23,1.09.19,2.35-1.38,2.99-.7.29-.48,1.59-.57,2.45-.15,1.37.2,2.86-1.48,3.72-.53.27-.51,1.29-.57,2.01-.09,1.04-.15,2.07-.25,3.11-.04.48.04,1.11-.23,1.4-2.03,2.18-1.26,4.96-1.67,7.48-.15.94-.13,1.91-.22,2.87-.04.39-.02.97-.26,1.14-1.83,1.33-1.33,3.29-1.39,5.04-.45,14.63-.57,29.26-.09,43.89.07,2.08.06,4.16.12,6.24.04,1.4-.26,2.87,1.23,3.88.5.34.38,1.19.43,1.82.14,1.99.22,3.99.39,5.98.12,1.39.04,2.76,1.2,3.97.8.84.53,2.28.68,3.46.18,1.43-.24,3.12,1.6,3.88.11.05.23.27.22.4-.34,3.01,2.58,5.07,2.35,8.04-.03.38.02.91.48,1,1.44.32,1.22,1.51,1.35,2.48.12.89.1,1.8,1.33,1.89.13,0,.35.18.35.27-.1,1.95,1.42,3.14,2.16,4.69.13.27.11.77.44.75,1.6-.08,1.26,1.29,1.69,2.11.78,1.49,1.6,2.99,3.18,3.82.41.21.62.49.64.91.05.72.31,1.22,1.11,1.3,1.01.1.54,1.55,1.14,1.58,1.83.09,1.63,2.64,3.42,2.63-.26,1.88,2.69,1.23,2.49,3.17-.04.42,1.02.15,1.23.43,1,1.34,2.23,2.11,3.92,2.1.07,0,.19.09.19.13-.05,2.09,1.94,1.42,2.9,2.14.98.74,1.85,1.72,3.26,1.63.07,0,.17.04.21.1,1.45,1.8,4.1,1.53,5.62,3.22.28.31.67.39,1.08.45,1.36.18,2.78.02,3.74,1.49.3.46,1.49.35,2.28.48,1.3.2,2.67,0,3.64,1.35.42.58,1.43.62,2.24.66.96.05,1.92.1,2.88.12,1.37.03,2.73.07,3.76,1.21.2.22.55.45.82.44,1.35-.03,1.61.73,1.45,1.85-.22,1.54-.64,1.95-2.11,2.03-.64.04-1.28,0-1.92,0-21.36,0-42.72,0-64.07,0Z"/>
      <path d="M1232.52,235.85c-.16,4.47-.3,8.95-.49,13.42-.05,1.25,0,2.49-1.15,3.5-.73.64-.36,1.81-.54,2.74-.23,1.26.08,2.62-1.42,3.53-.75.45-.55,1.75-.66,2.7-.13,1.04.13,2.29-1.34,2.75-.66.2-.45.93-.56,1.46-.22,1.02.06,2.33-1.54,2.58-.48.07-.5.63-.44,1,.21,1.38-1.59.85-1.75,1.93-.13.85-.33,2.34-.7,2.4-1.67.29-1.35,2.75-3.16,2.67.06,1.98-2.46,1.65-2.92,3.24-.1.34-.93.57-1.46.67-1.53.29-1.99,2.25-3.66,2.28-.16,1.82-1.66,1.56-2.82,1.81-.16.03-.43,0-.46.08-.58,1.45-2.32,1.37-3.13,2.36-.77.93-1.59,1.17-2.66,1.29-1.19.13-2.6-.2-3.18,1.48-.19.56-1.01.33-1.54.39-.87.1-1.75.13-2.63.2-.46.04-1.15-.07-1.28.44-.43,1.69-1.81,1.25-2.9,1.4-1.26.17-2.73-.26-3.77.45-3.16,2.16-6.72,1.26-10.11,1.6-1.9.19-3.83-.11-5.74.23-.94.17-1.55-.25-1.55-1.3.02-4.16-.04-8.32.09-12.47.06-1.81.29-1.91,2.24-2.01,2.4-.11,4.8-.11,7.19-.23,1.16-.06,2.3-.08,3.23-1.18.64-.75,1.85-.8,2.91-.86,1.08-.05,2.29.11,2.91-1.16,2.4-.29,4.01-2.37,6.34-2.83.31-.06.73-.05.74-.44.02-1.18.74-1.46,1.73-1.44.59-1.8,2.47-1.88,3.7-2.82.4-.31.61-.94.77-1.46.2-.69.17-1.43,1.18-1.52.53-.05.7-.58.74-1.1.02-.31.02-.78.33-.83,1.82-.29,1.47-1.78,1.69-2.95.09-.46.04-.94.48-1.29,1.75-1.35,1.16-3.31,1.3-5.08.03-.33-.18-.68-.54-.66-1.3.06-2.78-.53-3.77.77-.63.83-1.44.96-2.32.96-3.44.02-6.88.03-10.32,0-1.01-.01-2.11.05-2.67-1.16-.28-.61-.95-.47-1.49-.51-.96-.08-1.91-.13-2.87-.23-.39-.04-1.06-.08-1.11-.26-.5-1.77-1.99-1.52-3.27-1.72-.16-.02-.44,0-.46-.07-.46-1.44-2.17-1.46-2.88-2.59-.16-.25-.12-.74-.43-.79-1.77-.28-3.07-1.23-4.2-2.59-.48-.57-3.01-3.5-3.13-4.31-.11-.76-.16-1.45-1.17-1.44-.15,0-.42-.07-.43-.14-.22-1.69-2.07-2.5-2.26-4.23-.16-1.45,0-3.04-1.7-3.9-.48-.24-.34-1.03-.37-1.58-.3-6.08-.29-12.15,0-18.23.03-.54-.12-1.27.46-1.53,1.39-.61,1.22-1.88,1.48-3.01.26-1.14-.21-2.64,1.5-3.15.38-.11.2-.73.35-1.09.4-.97.29-2.27,1.74-2.58.45-.09.45-.61.48-1.01.04-.52.16-.95.8-.98.67-.03,1.03-.37,1.04-1.05,0-.68.36-1.01,1.02-1.08.41-.04.87-.15.91-.62.07-.88.5-1.26,1.35-1.36.98-.12.45-1.59,1.09-1.61,2.04-.07,2.87-2.62,5.04-2.3.25.04.7-.17.81-.39.82-1.58,2.28-1.51,3.73-1.59,1.69-.09,3.26-.22,4.94-1.08,1.97-1,4.5-1.01,6.82-.62,1.11.19,2.21.3,3.33.32.47,0,1.12-.07,1.39.19,1.58,1.56,3.57.98,5.41,1.23,1.38.19,3.15-.52,3.76,1.63.12.41.88.22,1.33.34.95.25,2.13.11,2.46,1.47.1.42.72.27,1.02.46,1.6.98,3.06,2.16,4.72,3.07.44.24.64,1.02,1.39,1.07.58.03.8.43.84.97.02.23.1.66.17.67,1.8.1,1.66,2.02,2.7,2.85.68.54,1.18,1.29,1.19,2.26,0,.29.17.84.28.84,1.92.09,1.24,1.9,1.92,2.77,1.13,1.46,1.88,2.97,1.79,4.84,0,.14.1.36.21.41,1.99.89,1.49,2.77,1.74,4.35.23,1.44-.1,2.98,1.25,4.18.47.41.41,1.5.46,2.28.29,4.63.41,9.27.44,13.91Z"/>
      <path d="M1152.09,77.3c1.05.98,1.34,1.98,1.33,3.15-.03,3.52.02,7.04-.02,10.55-.02,2.47-.98,3.45-3.47,3.57-2.71.13-5.43.17-8.15.3-.92.04-1.9-.04-2.39,1.15-.33.79-1.28.52-1.95.58-1.12.1-2.18.13-2.96,1.19-.29.39-.95.65-1.47.71-.99.1-1.87.13-2.25,1.33-.17.54-.91.62-1.46.68-.89.09-1.79.06-1.88,1.31-.04.48-.49.55-.91.58-.47.04-1.09.02-1.13.63-.07,1.25-1.11,1.27-1.87,1.49-1.11.32-1.78.91-1.95,2.06-.12.8-.26,1.57-1.28,1.76-.43.08-.59.48-.65.91-.05.31-.1.85-.24.87-1.98.4-1.59,2.04-1.83,3.35-.04.23-.1.57-.25.65-2.45,1.21-1.09,3.51-1.5,5.29-.09.37.07.88.58.87,1.31-.03,2.76.4,3.81-.77.77-.86,1.7-1.08,2.79-1.07,3.04.02,6.08.02,9.11,0,.82,0,1.75-.05,2.25.58.99,1.25,2.35,1.16,3.67,1.33,1.28.16,2.78-.18,3.4,1.53.07.18.55.26.86.3,1.26.16,2.57.2,3.1,1.69,1.94.1,2.42,2.43,4.3,2.75,1.22.21,1.55,2.01,3.05,2.08.34.02.29.67.41,1.05.3.95.32,2.09,1.65,2.37.45.09.45.6.48,1,.02.32.03.84.3.84,1.88-.03,1.71,1.53,1.74,2.53.04,1.33,1.6,1.25,1.73,2.34.11.95-.07,2.37.46,2.75,1.98,1.41,1.43,3.39,1.52,5.18.24,5.03.17,10.07-.06,15.1-.04.91.03,1.77-1.01,2.47-.84.56-.68,1.86-.85,2.88-.16.96.31,2.33-1.39,2.6-.66.11-.33.96-.49,1.47-.27.86-.12,2-1.44,2.19-.34.05-.56.34-.58.68-.06.79-.27,1.38-1.21,1.46-.47.04-.6.44-.67.86-.05.31-.18.88-.23.88-1.74-.16-1.54,2.3-3.14,2.31-.49,0-.6.44-.64.86-.03.32-.1.79-.39.81-2.16.18-3.29,2.81-5.72,2.36-.34-.06-.98.12-1.08.36-.78,1.9-2.44,1.41-3.86,1.51-1.39.1-2.87-.23-3.81,1.32-.28.47-1.03.31-1.59.32-2,0-4,0-6,0-1.2,0-2.41.1-3.25-1.05-.37-.5-1.01-.42-1.56-.44-1.52-.07-3.04-.1-4.55-.22-1.37-.1-2.99.29-3.65-1.55-.04-.12-.27-.27-.38-.25-2.21.45-3.37-1.65-5.2-2.12-.45-.11-.65-.41-.75-.83-.07-.32-.18-.7-.53-.73-1.9-.18-2.86-1.95-4.47-2.59-.45-.18-.54-.55-.57-.95-.04-.66-.38-1.01-1.04-1.08-.43-.04-.8-.2-.82-.69-.04-.83-.5-1.27-1.22-1.58-.57-.25-.64-.89-.79-1.42-.27-.92-.02-2.19-1.59-2.16-.1,0-.3-.23-.29-.34.31-2.51-2.45-3.89-2.33-6.33.03-.58-.16-1.08-.74-1.39-.98-.52-1.08-1.51-1.16-2.47-.1-1.11-.11-2.23-.21-3.35-.06-.76-.05-1.45-.83-2.09-.88-.72-.8-2.01-.85-3.13-.26-6.07-.24-12.15-.17-18.22.03-2.72.14-5.43.2-8.15.03-1.22.14-2.42,1.12-3.29.86-.77.49-1.8.64-2.71.25-1.48-.32-3.17,1.54-4.17.45-.24.38-1.47.53-2.24.24-1.19-.04-2.59,1.51-3.21.47-.19.31-.85.42-1.31.24-1.05.2-2.28,1.63-2.62.32-.08.44-.44.44-.78,0-.76.11-1.4,1.06-1.59.4-.08.4-.65.58-.99.55-1.01.4-2.59,2.1-2.72-.28-1.86,2.51-1.54,2.35-3.31,1.73.09,1.81-1.94,3.28-2.51,1.34-.53,2.34-2.03,4.04-2.18.4-1.79,2.41-1.36,3.17-2.2,1.09-1.21,2.8-1.2,3.71-2.52.64-.93,1.77-.9,2.82-1.02,1-.11,2.35.27,2.64-1.38.08-.44.63-.4,1.02-.43.96-.07,1.92-.1,2.87-.21.46-.05,1.21-.1,1.32-.37.75-1.78,2.31-1.36,3.67-1.51,1.85-.21,3.85.19,5.3-1.54.26-.31,1.06-.22,1.61-.23,3.04-.1,6.07-.18,9.11-.25,1.34-.03,2.73.13,3.47-1.49Z"/>
      <path d="M1050.55,33.98c0,2.24.05,4.48-.02,6.71-.03,1.14.16,2.39-1.31,3.05-.68.31-.41,1.3-.57,1.99-.29,1.31.22,2.95-1.67,3.56-.35.11-.19.73-.3,1.1-.33,1-.18,2.31-1.62,2.63-.06,1.65-2.18,1.85-2.38,3.41-.05.43-.36.72-.8.77-.7.08-1.23.27-1.28,1.11-.03.58-.44.8-.97.86-.54.07-.89.33-.91.91-.03.83-.51,1.09-1.26,1.07-.08,0-.16.03-.24.04-1.02.14-.35,1.76-1.61,1.77-.79,0-1.57.23-2.36.37-.07.01-.17.09-.18.14-.3,2.16-2.05,1.45-3.32,1.66-.4.07-.9.04-1.01.47-.39,1.54-1.65,1.26-2.7,1.33-1.51.1-3.04.06-4.55.14-1.09.06-2.13.02-3,1.08-.74.9-2.44.75-3.15-.23-.59-.83-1.27-.82-2.06-.84-1.76-.05-3.52-.08-5.27-.15-1.1-.04-2.2.02-2.82-1.29-.46-.98-1.59-.43-2.41-.61-.77-.17-1.65.01-1.71-1.17-.01-.2-.22-.55-.36-.56-1.69-.14-3.03-.75-4.18-2.11-.35-.41-1.22-.46-1.3-1.33-.04-.47-.43-.65-.86-.67-.75-.05-1.19-.4-1.26-1.16,0-.08-.01-.2-.06-.23-.99-.59-2.04-1.12-2.08-2.5-1.77.1-1.45-1.78-2.36-2.48-1.03-.8-1.31-1.93-1.43-3.14-.01-.14-.12-.38-.21-.4-1.99-.31-1.48-1.92-1.64-3.16-.17-1.32-.05-2.66-1.31-3.67-.57-.46-.51-1.46-.54-2.28-.11-3.76-.17-7.51,0-11.27.06-1.27.06-2.51,1.23-3.47.82-.67.44-1.8.56-2.72.17-1.22-.13-2.65,1.55-3.12.13-.04.3-.22.3-.33.01-1.75,1-2.95,2-4.28.46-.61.53-1.35,1.51-1.39.5-.02.55-.51.59-.91.06-.65.37-1.02,1.04-1.07.58-.04.82-.43.88-.95.08-.69.5-.94,1.14-.97.42-.02.86-.17.88-.63.05-.97,1.05-1.07,1.36-1.54.99-1.46,2.37-1.82,3.87-2.15.36-.08.49-.37.58-.69.08-.31.18-.75.48-.76,2.99-.06,5.19-2.86,8.41-2.32,1.34.22,2.64-.26,4.02-.94,1.87-.92,4.36-.9,6.28,0,1.38.65,2.66.88,4.07.99,1.04.08,2.07.12,3.11.22.38.04.99.08,1.1.3.72,1.56,2.15,1.38,3.45,1.51.83.08,1.58.43,2.09,1.04.54.64,1.21.89,1.9,1.27.98.55,1.87,1.41,2.73,2.14,1.3,1.1,2.27,2.63,3.78,3.56-.2,1.74,2.27,1.7,2.24,3.34,0,.14.12.38.21.4,1.99.29,1.78,1.88,1.95,3.25.03.22.12.6.24.63,1.94.41,1.4,2.03,1.62,3.27.07.39-.02.87.34,1.1,1.65,1.03,1.5,2.71,1.56,4.28.07,1.99.02,3.99.02,5.99,0,0-.01,0-.02,0Z"/>
    </g>
  </g>
</svg>